<?xml version="1.0" encoding="utf-8"?>
<!-- Generator: Adobe Illustrator 16.0.4, SVG Export Plug-In . SVG Version: 6.00 Build 0)  -->
<!DOCTYPE svg PUBLIC "-//W3C//DTD SVG 1.1//EN" "http://www.w3.org/Graphics/SVG/1.1/DTD/svg11.dtd">
<svg version="1.1" xmlns="http://www.w3.org/2000/svg" xmlns:xlink="http://www.w3.org/1999/xlink" x="0px" y="0px"
	 width="426.894px" height="301.465px" viewBox="0 0 426.894 301.465" enable-background="new 0 0 426.894 301.465"
	 xml:space="preserve">
<g id="text">
	<g>
		<path fill="#7B8F8A" d="M65.687,290.602c0,1.898-0.43,3.412-1.289,4.541s-2.043,1.693-3.551,1.693
			c-0.891,0-1.67-0.168-2.338-0.504s-1.213-0.816-1.635-1.441v6.574h-1.406v-17.555h1.184l0.176,1.969
			c0.422-0.703,0.967-1.246,1.635-1.629s1.455-0.574,2.361-0.574c1.523,0,2.715,0.607,3.574,1.822s1.289,2.834,1.289,4.857V290.602z
			 M64.28,290.338c0-1.611-0.32-2.925-0.961-3.941s-1.578-1.525-2.812-1.525c-0.945,0-1.713,0.225-2.303,0.675
			c-0.59,0.449-1.033,1.034-1.33,1.754v6.101c0.32,0.695,0.783,1.243,1.389,1.642c0.605,0.399,1.361,0.599,2.268,0.599
			c1.227,0,2.158-0.461,2.795-1.385c0.637-0.922,0.955-2.146,0.955-3.672V290.338z"/>
		<path fill="#7B8F8A" d="M73.597,296.836c-1.586,0-2.904-0.586-3.955-1.758s-1.576-2.656-1.576-4.453v-0.645
			c0-1.812,0.521-3.316,1.564-4.512s2.307-1.793,3.791-1.793c1.555,0,2.777,0.492,3.668,1.477s1.336,2.297,1.336,3.938v1.195h-8.953
			v0.339c0,1.427,0.379,2.619,1.137,3.578s1.754,1.438,2.988,1.438c0.875,0,1.621-0.121,2.238-0.363s1.145-0.59,1.582-1.043
			l0.598,0.961c-0.477,0.502-1.08,0.9-1.811,1.197C75.474,296.688,74.604,296.836,73.597,296.836z M73.421,284.872
			c-1.039,0-1.91,0.396-2.613,1.187c-0.703,0.79-1.113,1.782-1.23,2.974l0.023,0.059h7.43v-0.351c0-1.099-0.324-2.018-0.973-2.758
			S74.53,284.872,73.421,284.872z"/>
		<path fill="#7B8F8A" d="M87.038,285.118l-1.043-0.07c-0.883,0-1.607,0.248-2.174,0.744s-0.971,1.178-1.213,2.045v8.754h-1.406
			v-12.68h1.23l0.176,2.109v0.141c0.367-0.781,0.859-1.391,1.477-1.828s1.352-0.656,2.203-0.656c0.18,0,0.354,0.014,0.521,0.041
			s0.307,0.057,0.416,0.088L87.038,285.118z"/>
		<path fill="#7B8F8A" d="M96.964,293.362c0-0.593-0.244-1.111-0.732-1.556s-1.369-0.807-2.643-1.087
			c-1.516-0.328-2.635-0.762-3.357-1.301s-1.084-1.301-1.084-2.285c0-0.969,0.408-1.787,1.225-2.455s1.896-1.002,3.24-1.002
			c1.43,0,2.562,0.354,3.398,1.061s1.234,1.592,1.195,2.654l-0.023,0.07h-1.301c0-0.695-0.295-1.301-0.885-1.816
			s-1.385-0.773-2.385-0.773c-1.023,0-1.791,0.22-2.303,0.659c-0.512,0.438-0.768,0.954-0.768,1.545
			c0,0.583,0.221,1.064,0.662,1.445s1.322,0.716,2.643,1.003c1.508,0.337,2.637,0.798,3.387,1.382s1.125,1.377,1.125,2.38
			c0,1.059-0.428,1.915-1.283,2.569s-1.986,0.981-3.393,0.981c-1.539,0-2.748-0.367-3.627-1.102s-1.295-1.609-1.248-2.625
			l0.023-0.07h1.289c0.055,0.91,0.428,1.571,1.119,1.983s1.506,0.618,2.443,0.618c1.016,0,1.816-0.222,2.402-0.666
			S96.964,293.993,96.964,293.362z"/>
		<path fill="#7B8F8A" d="M100.808,290.063c0-1.867,0.512-3.398,1.535-4.594s2.379-1.793,4.066-1.793
			c1.695,0,3.055,0.598,4.078,1.793s1.535,2.727,1.535,4.594v0.387c0,1.875-0.51,3.408-1.529,4.6s-2.373,1.787-4.061,1.787
			c-1.703,0-3.066-0.596-4.09-1.787s-1.535-2.725-1.535-4.6V290.063z M102.214,290.444c0,1.467,0.371,2.7,1.113,3.699
			s1.777,1.498,3.105,1.498c1.305,0,2.33-0.499,3.076-1.498s1.119-2.232,1.119-3.699v-0.387c0-1.443-0.375-2.669-1.125-3.676
			s-1.781-1.51-3.094-1.51s-2.34,0.503-3.082,1.51s-1.113,2.232-1.113,3.676V290.444z"/>
		<path fill="#7B8F8A" d="M116.194,283.911l0.129,2.215c0.406-0.781,0.955-1.385,1.646-1.811s1.51-0.639,2.455-0.639
			c1.375,0,2.422,0.42,3.141,1.26s1.078,2.15,1.078,3.932v7.723h-1.406v-7.727c0-1.456-0.271-2.485-0.814-3.088
			s-1.314-0.904-2.314-0.904c-0.984,0-1.787,0.261-2.408,0.781s-1.068,1.211-1.342,2.072v8.865h-1.406v-12.68H116.194z"/>
		<path fill="#7B8F8A" d="M136.339,296.59c-0.094-0.43-0.16-0.801-0.199-1.113s-0.059-0.629-0.059-0.949
			c-0.469,0.664-1.094,1.215-1.875,1.652s-1.66,0.656-2.637,0.656c-1.234,0-2.193-0.328-2.877-0.984s-1.025-1.535-1.025-2.637
			c0-1.172,0.506-2.109,1.518-2.812s2.377-1.055,4.096-1.055h2.801v-1.57c0-0.906-0.291-1.617-0.873-2.133s-1.396-0.773-2.443-0.773
			c-0.977,0-1.787,0.246-2.432,0.738s-0.967,1.094-0.967,1.805l-1.289-0.012l-0.023-0.07c-0.047-0.945,0.385-1.791,1.295-2.537
			s2.068-1.119,3.475-1.119c1.398,0,2.523,0.355,3.375,1.066s1.277,1.73,1.277,3.059v6.234c0,0.445,0.025,0.879,0.076,1.301
			s0.135,0.84,0.252,1.254H136.339z M131.733,295.594c1.008,0,1.898-0.236,2.672-0.709s1.332-1.076,1.676-1.811v-2.648h-2.824
			c-1.273,0-2.291,0.271-3.053,0.814s-1.143,1.217-1.143,2.021c0,0.688,0.236,1.248,0.709,1.682S130.897,295.594,131.733,295.594z"
			/>
		<path fill="#7B8F8A" d="M142.784,296.59h-1.395v-18.281h1.395V296.59z"/>
		<path fill="#7B8F8A" d="M153.683,283.911l0.129,2.098c0.406-0.742,0.947-1.316,1.623-1.723s1.482-0.609,2.42-0.609
			c0.969,0,1.779,0.234,2.432,0.703s1.119,1.184,1.4,2.145c0.383-0.891,0.928-1.588,1.635-2.092s1.568-0.756,2.584-0.756
			c1.352,0,2.395,0.449,3.129,1.348s1.102,2.289,1.102,4.172v7.395h-1.406v-7.433c0-1.565-0.275-2.672-0.826-3.317
			s-1.318-0.969-2.303-0.969c-1.086,0-1.926,0.341-2.52,1.021c-0.594,0.682-0.961,1.554-1.102,2.619
			c0,0.055,0.002,0.133,0.006,0.234s0.006,0.176,0.006,0.223v7.621h-1.418v-7.433c0-1.534-0.279-2.632-0.838-3.294
			c-0.559-0.661-1.326-0.992-2.303-0.992c-0.992,0-1.779,0.253-2.361,0.758s-0.99,1.184-1.225,2.037v8.924h-1.418v-12.68H153.683z"
			/>
		<path fill="#7B8F8A" d="M178.526,296.836c-1.586,0-2.904-0.586-3.955-1.758s-1.576-2.656-1.576-4.453v-0.645
			c0-1.812,0.521-3.316,1.564-4.512s2.307-1.793,3.791-1.793c1.555,0,2.777,0.492,3.668,1.477s1.336,2.297,1.336,3.938v1.195h-8.953
			v0.339c0,1.427,0.379,2.619,1.137,3.578s1.754,1.438,2.988,1.438c0.875,0,1.621-0.121,2.238-0.363s1.145-0.59,1.582-1.043
			l0.598,0.961c-0.477,0.502-1.08,0.9-1.811,1.197C180.403,296.688,179.534,296.836,178.526,296.836z M178.351,284.872
			c-1.039,0-1.91,0.396-2.613,1.187c-0.703,0.79-1.113,1.782-1.23,2.974l0.023,0.059h7.43v-0.351c0-1.099-0.324-2.018-0.973-2.758
			S179.46,284.872,178.351,284.872z"/>
		<path fill="#7B8F8A" d="M185.581,290.356c0-2.023,0.428-3.643,1.283-4.857s2.049-1.822,3.58-1.822
			c0.883,0,1.648,0.188,2.297,0.562s1.188,0.906,1.617,1.594v-7.523h1.395v18.281h-1.242l-0.117-1.84
			c-0.422,0.672-0.965,1.188-1.629,1.547s-1.445,0.539-2.344,0.539c-1.516,0-2.701-0.564-3.557-1.693s-1.283-2.643-1.283-4.541
			V290.356z M186.987,290.604c0,1.537,0.307,2.762,0.92,3.672s1.537,1.365,2.771,1.365c0.906,0,1.662-0.204,2.268-0.612
			c0.605-0.407,1.076-0.973,1.412-1.694v-5.979c-0.32-0.737-0.773-1.336-1.359-1.795s-1.352-0.688-2.297-0.688
			c-1.234,0-2.162,0.508-2.783,1.524c-0.621,1.016-0.932,2.336-0.932,3.96V290.604z"/>
		<path fill="#7B8F8A" d="M201.062,280.278h-1.395v-1.969h1.395V280.278z M201.062,296.59h-1.395v-12.68h1.395V296.59z"/>
		<path fill="#7B8F8A" d="M212.968,296.59c-0.094-0.43-0.16-0.801-0.199-1.113s-0.059-0.629-0.059-0.949
			c-0.469,0.664-1.094,1.215-1.875,1.652s-1.66,0.656-2.637,0.656c-1.234,0-2.193-0.328-2.877-0.984s-1.025-1.535-1.025-2.637
			c0-1.172,0.506-2.109,1.518-2.812s2.377-1.055,4.096-1.055h2.801v-1.57c0-0.906-0.291-1.617-0.873-2.133s-1.396-0.773-2.443-0.773
			c-0.977,0-1.787,0.246-2.432,0.738s-0.967,1.094-0.967,1.805l-1.289-0.012l-0.023-0.07c-0.047-0.945,0.385-1.791,1.295-2.537
			s2.068-1.119,3.475-1.119c1.398,0,2.523,0.355,3.375,1.066s1.277,1.73,1.277,3.059v6.234c0,0.445,0.025,0.879,0.076,1.301
			s0.135,0.84,0.252,1.254H212.968z M208.362,295.594c1.008,0,1.898-0.236,2.672-0.709s1.332-1.076,1.676-1.811v-2.648h-2.824
			c-1.273,0-2.291,0.271-3.053,0.814s-1.143,1.217-1.143,2.021c0,0.688,0.236,1.248,0.709,1.682S207.526,295.594,208.362,295.594z"
			/>
		<path fill="#7B8F8A" d="M223.128,290.356c0-2.023,0.428-3.643,1.283-4.857s2.049-1.822,3.58-1.822
			c0.883,0,1.648,0.188,2.297,0.562s1.188,0.906,1.617,1.594v-7.523h1.395v18.281h-1.242l-0.117-1.84
			c-0.422,0.672-0.965,1.188-1.629,1.547s-1.445,0.539-2.344,0.539c-1.516,0-2.701-0.564-3.557-1.693s-1.283-2.643-1.283-4.541
			V290.356z M224.534,290.604c0,1.537,0.307,2.762,0.92,3.672s1.537,1.365,2.771,1.365c0.906,0,1.662-0.204,2.268-0.612
			c0.605-0.407,1.076-0.973,1.412-1.694v-5.979c-0.32-0.737-0.773-1.336-1.359-1.795s-1.352-0.688-2.297-0.688
			c-1.234,0-2.162,0.508-2.783,1.524c-0.621,1.016-0.932,2.336-0.932,3.96V290.604z"/>
		<path fill="#7B8F8A" d="M241.796,296.836c-1.586,0-2.904-0.586-3.955-1.758s-1.576-2.656-1.576-4.453v-0.645
			c0-1.812,0.521-3.316,1.564-4.512s2.307-1.793,3.791-1.793c1.555,0,2.777,0.492,3.668,1.477s1.336,2.297,1.336,3.938v1.195h-8.953
			v0.339c0,1.427,0.379,2.619,1.137,3.578s1.754,1.438,2.988,1.438c0.875,0,1.621-0.121,2.238-0.363s1.145-0.59,1.582-1.043
			l0.598,0.961c-0.477,0.502-1.08,0.9-1.811,1.197C243.673,296.688,242.804,296.836,241.796,296.836z M241.62,284.872
			c-1.039,0-1.91,0.396-2.613,1.187c-0.703,0.79-1.113,1.782-1.23,2.974l0.023,0.059h7.43v-0.351c0-1.099-0.324-2.018-0.973-2.758
			S242.729,284.872,241.62,284.872z"/>
		<path fill="#7B8F8A" d="M252.858,293.415l0.41,1.488h0.07l0.445-1.488l3.445-9.504h1.453l-4.816,12.68h-1.125l-4.828-12.68h1.453
			L252.858,293.415z"/>
		<path fill="#7B8F8A" d="M265.597,296.836c-1.586,0-2.904-0.586-3.955-1.758s-1.576-2.656-1.576-4.453v-0.645
			c0-1.812,0.521-3.316,1.564-4.512s2.307-1.793,3.791-1.793c1.555,0,2.777,0.492,3.668,1.477s1.336,2.297,1.336,3.938v1.195h-8.953
			v0.339c0,1.427,0.379,2.619,1.137,3.578s1.754,1.438,2.988,1.438c0.875,0,1.621-0.121,2.238-0.363s1.145-0.59,1.582-1.043
			l0.598,0.961c-0.477,0.502-1.08,0.9-1.811,1.197C267.474,296.688,266.604,296.836,265.597,296.836z M265.421,284.872
			c-1.039,0-1.91,0.396-2.613,1.187c-0.703,0.79-1.113,1.782-1.23,2.974l0.023,0.059h7.43v-0.351c0-1.099-0.324-2.018-0.973-2.758
			S266.53,284.872,265.421,284.872z"/>
		<path fill="#7B8F8A" d="M274.772,296.59h-1.395v-18.281h1.395V296.59z"/>
		<path fill="#7B8F8A" d="M277.866,290.063c0-1.867,0.512-3.398,1.535-4.594s2.379-1.793,4.066-1.793
			c1.695,0,3.055,0.598,4.078,1.793s1.535,2.727,1.535,4.594v0.387c0,1.875-0.51,3.408-1.529,4.6s-2.373,1.787-4.061,1.787
			c-1.703,0-3.066-0.596-4.09-1.787s-1.535-2.725-1.535-4.6V290.063z M279.272,290.444c0,1.467,0.371,2.7,1.113,3.699
			s1.777,1.498,3.105,1.498c1.305,0,2.33-0.499,3.076-1.498s1.119-2.232,1.119-3.699v-0.387c0-1.443-0.375-2.669-1.125-3.676
			s-1.781-1.51-3.094-1.51s-2.34,0.503-3.082,1.51s-1.113,2.232-1.113,3.676V290.444z"/>
		<path fill="#7B8F8A" d="M302.218,290.602c0,1.898-0.43,3.412-1.289,4.541s-2.043,1.693-3.551,1.693
			c-0.891,0-1.67-0.168-2.338-0.504s-1.213-0.816-1.635-1.441v6.574h-1.406v-17.555h1.184l0.176,1.969
			c0.422-0.703,0.967-1.246,1.635-1.629s1.455-0.574,2.361-0.574c1.523,0,2.715,0.607,3.574,1.822s1.289,2.834,1.289,4.857V290.602z
			 M300.812,290.338c0-1.611-0.32-2.925-0.961-3.941s-1.578-1.525-2.812-1.525c-0.945,0-1.713,0.225-2.303,0.675
			c-0.59,0.449-1.033,1.034-1.33,1.754v6.101c0.32,0.695,0.783,1.243,1.389,1.642c0.605,0.399,1.361,0.599,2.268,0.599
			c1.227,0,2.158-0.461,2.795-1.385c0.637-0.922,0.955-2.146,0.955-3.672V290.338z"/>
		<path fill="#7B8F8A" d="M306.554,283.911l0.129,2.098c0.406-0.742,0.947-1.316,1.623-1.723s1.482-0.609,2.42-0.609
			c0.969,0,1.779,0.234,2.432,0.703s1.119,1.184,1.4,2.145c0.383-0.891,0.928-1.588,1.635-2.092s1.568-0.756,2.584-0.756
			c1.352,0,2.395,0.449,3.129,1.348s1.102,2.289,1.102,4.172v7.395h-1.406v-7.433c0-1.565-0.275-2.672-0.826-3.317
			s-1.318-0.969-2.303-0.969c-1.086,0-1.926,0.341-2.52,1.021c-0.594,0.682-0.961,1.554-1.102,2.619
			c0,0.055,0.002,0.133,0.006,0.234s0.006,0.176,0.006,0.223v7.621h-1.418v-7.433c0-1.534-0.279-2.632-0.838-3.294
			c-0.559-0.661-1.326-0.992-2.303-0.992c-0.992,0-1.779,0.253-2.361,0.758s-0.99,1.184-1.225,2.037v8.924H305.3v-12.68H306.554z"/>
		<path fill="#7B8F8A" d="M331.397,296.836c-1.586,0-2.904-0.586-3.955-1.758s-1.576-2.656-1.576-4.453v-0.645
			c0-1.812,0.521-3.316,1.564-4.512s2.307-1.793,3.791-1.793c1.555,0,2.777,0.492,3.668,1.477s1.336,2.297,1.336,3.938v1.195h-8.953
			v0.339c0,1.427,0.379,2.619,1.137,3.578s1.754,1.438,2.988,1.438c0.875,0,1.621-0.121,2.238-0.363s1.145-0.59,1.582-1.043
			l0.598,0.961c-0.477,0.502-1.08,0.9-1.811,1.197C333.274,296.688,332.405,296.836,331.397,296.836z M331.222,284.872
			c-1.039,0-1.91,0.396-2.613,1.187c-0.703,0.79-1.113,1.782-1.23,2.974l0.023,0.059h7.43v-0.351c0-1.099-0.324-2.018-0.973-2.758
			S332.331,284.872,331.222,284.872z"/>
		<path fill="#7B8F8A" d="M340.245,283.911l0.129,2.215c0.406-0.781,0.955-1.385,1.646-1.811s1.51-0.639,2.455-0.639
			c1.375,0,2.422,0.42,3.141,1.26s1.078,2.15,1.078,3.932v7.723h-1.406v-7.727c0-1.456-0.271-2.485-0.814-3.088
			s-1.314-0.904-2.314-0.904c-0.984,0-1.787,0.261-2.408,0.781s-1.068,1.211-1.342,2.072v8.865h-1.406v-12.68H340.245z"/>
		<path fill="#7B8F8A" d="M354.565,280.665v3.246h2.789v1.148h-2.789v8.262c0,0.828,0.15,1.416,0.451,1.764s0.701,0.521,1.201,0.521
			c0.227,0,0.447-0.01,0.662-0.029s0.463-0.053,0.744-0.1l0.211,1.043c-0.234,0.102-0.52,0.18-0.855,0.234s-0.672,0.082-1.008,0.082
			c-0.891,0-1.584-0.281-2.08-0.844s-0.744-1.453-0.744-2.672v-8.262h-2.191v-1.148h2.191v-3.246H354.565z"/>
	</g>
</g>
<g id="podlove_logo">
	<g>
		<path d="M48.403,251.482H10.601v9.001c0,4.8,0,4.5,0,8.8H0V213.28c0-4.801,0-4.4,0-8.801h48.403c10.8,0,14.801,6,14.801,14.601
			v17.802C63.204,245.482,59.203,251.482,48.403,251.482z M52.603,217.28c0-2.601-1-3.601-3.3-3.601H13.9c-2.3,0-3.3,1-3.3,3.601
			v21.401c0,2.601,1,3.601,3.3,3.601h35.402c2.3,0,3.3-1,3.3-3.601V217.28z"/>
		<path d="M120.002,251.482H83.199c-10.601,0-13.601-4.4-13.601-14.201V218.68c0-9.801,3-14.201,13.601-14.201h36.803
			c10.601,0,13.601,4.4,13.601,14.201v18.601C133.603,247.082,130.603,251.482,120.002,251.482z M123.002,217.48
			c0-2.7-0.8-3.801-3.6-3.801H83.6c-2.6,0-3.4,1.101-3.4,3.801v21.001c0,2.7,0.8,3.801,3.4,3.801h35.802c2.8,0,3.6-1.101,3.6-3.801
			V217.48z"/>
		<path d="M154.798,251.482c-11.201,0-14.801-5.601-14.801-14.601V219.08c0-9.4,3.7-14.601,14.801-14.601h37.802
			c0,0,0-14.101,0-17.001h10.601v55.203c0,4.801,0,5.501,0,8.801H154.798z M192.601,217.28c0-2.601-1-3.601-3.3-3.601h-35.402
			c-2.3,0-3.3,1-3.3,3.601v21.401c0,2.601,1,3.601,3.3,3.601h35.402c2.3,0,3.3-1,3.3-3.601V217.28z"/>
		<path d="M211.097,251.482v-64.004h10.601v64.004H211.097z"/>
		<path d="M279.8,251.482h-36.803c-10.601,0-13.601-4.4-13.601-14.201V218.68c0-9.801,3-14.201,13.601-14.201H279.8
			c10.601,0,13.601,4.4,13.601,14.201v18.601C293.4,247.082,290.4,251.482,279.8,251.482z M282.8,217.48
			c0-2.7-0.8-3.801-3.601-3.801h-35.802c-2.601,0-3.4,1.101-3.4,3.801v21.001c0,2.7,0.8,3.801,3.4,3.801h35.802
			c2.801,0,3.601-1.101,3.601-3.801V217.48z"/>
		<path d="M334.795,251.482h-0.3h-11.801h-0.3l-28.802-47.003h12.101l22.901,37.402l22.901-37.402h12.101L334.795,251.482z"/>
		<path d="M374.391,233.081v4.4c0,3.4,1.601,4.801,5.4,4.801h38.002v9.2h-40.402c-10.601,0-13.601-4.3-13.601-14.201V218.68
			c0-9.801,2.4-14.201,13.601-14.201h35.902c11.201,0,13.601,3.9,13.601,14.201v14.4H374.391z M416.894,217.48
			c0-2.7-0.801-3.801-3.4-3.801h-35.702c-2.601,0-3.4,1.101-3.4,3.801v6.4h42.503V217.48z"/>
	</g>
	<g id="podlove_signet_1_">
		<g>
			<path fill="#181716" d="M239.903,9c6.728,0,12.201,5.474,12.201,12.202v118.408c0,6.728-5.474,12.201-12.201,12.201h-56.919
				c-6.727,0-12.2-5.473-12.2-12.201V21.202c0-6.728,5.473-12.202,12.2-12.202H239.903 M239.903,0h-56.919
				c-11.707,0-21.2,9.493-21.2,21.202v118.408c0,11.708,9.493,21.201,21.2,21.201h56.919c11.71,0,21.201-9.492,21.201-21.201V21.202
				C261.104,9.493,251.613,0,239.903,0L239.903,0z"/>
		</g>
		<g>
			<path fill="#181716" d="M211.36,90.412c12.742,0,23.069,10.327,23.069,23.068c0,12.74-10.327,23.069-23.069,23.069
				c-12.738,0-23.067-10.329-23.067-23.069C188.293,100.739,198.622,90.412,211.36,90.412 M211.36,81.412
				c-17.682,0-32.067,14.386-32.067,32.068c0,17.683,14.385,32.069,32.067,32.069c17.683,0,32.069-14.386,32.069-32.069
				C243.43,95.798,229.043,81.412,211.36,81.412L211.36,81.412z"/>
		</g>
		<path fill-rule="evenodd" clip-rule="evenodd" fill="none" stroke="#181716" stroke-width="9" stroke-miterlimit="10" d="
			M234.679,46.223l-23.569,23.583L187.542,46.22c-2.649-2.7-4.285-6.399-4.285-10.481c0-8.267,6.702-14.968,14.968-14.968
			c5.485,0,10.278,2.949,12.885,7.347c2.606-4.398,7.401-7.347,12.884-7.347c8.268,0,14.97,6.701,14.97,14.968
			C238.964,39.821,237.328,43.522,234.679,46.223z"/>
		<path fill-rule="evenodd" clip-rule="evenodd" fill="#181716" d="M211.361,105.223c4.561,0,8.26,3.698,8.26,8.257
			c0,4.562-3.699,8.258-8.26,8.258c-4.56,0-8.257-3.696-8.257-8.258C203.104,108.921,206.801,105.223,211.361,105.223z"/>
	</g>
</g>
<g id="hilfslinien">
</g>
</svg>
