<?xml version="1.0" encoding="utf-8"?>
<!-- Generator: Adobe Illustrator 16.0.4, SVG Export Plug-In . SVG Version: 6.00 Build 0)  -->
<!DOCTYPE svg PUBLIC "-//W3C//DTD SVG 1.1//EN" "http://www.w3.org/Graphics/SVG/1.1/DTD/svg11.dtd">
<svg version="1.1" xmlns="http://www.w3.org/2000/svg" xmlns:xlink="http://www.w3.org/1999/xlink" x="0px" y="0px"
	 width="504.675px" height="105.288px" viewBox="0 0 504.675 105.288" enable-background="new 0 0 504.675 105.288"
	 xml:space="preserve">
<g id="text">
	<g>
		<path fill="#7B8F8A" d="M205.468,94.424c0,1.898-0.43,3.412-1.289,4.541s-2.043,1.693-3.551,1.693
			c-0.891,0-1.67-0.168-2.338-0.504s-1.213-0.816-1.635-1.441v6.574h-1.406V87.733h1.184l0.176,1.969
			c0.422-0.703,0.967-1.246,1.635-1.629s1.455-0.574,2.361-0.574c1.523,0,2.715,0.607,3.574,1.822s1.289,2.834,1.289,4.857V94.424z
			 M204.062,94.161c0-1.611-0.32-2.925-0.961-3.941s-1.578-1.525-2.812-1.525c-0.945,0-1.713,0.225-2.303,0.675
			c-0.59,0.449-1.033,1.034-1.33,1.754v6.101c0.32,0.695,0.783,1.243,1.389,1.642c0.605,0.399,1.361,0.599,2.268,0.599
			c1.227,0,2.158-0.461,2.795-1.385c0.637-0.922,0.955-2.146,0.955-3.672V94.161z"/>
		<path fill="#7B8F8A" d="M213.378,100.659c-1.586,0-2.904-0.586-3.955-1.758s-1.576-2.656-1.576-4.453v-0.645
			c0-1.812,0.521-3.316,1.564-4.512s2.307-1.793,3.791-1.793c1.555,0,2.777,0.492,3.668,1.477s1.336,2.297,1.336,3.938v1.195h-8.953
			v0.339c0,1.427,0.379,2.619,1.137,3.578s1.754,1.438,2.988,1.438c0.875,0,1.621-0.121,2.238-0.363s1.145-0.59,1.582-1.043
			l0.598,0.961c-0.477,0.502-1.08,0.9-1.811,1.197C215.255,100.51,214.386,100.659,213.378,100.659z M213.202,88.694
			c-1.039,0-1.91,0.396-2.613,1.187c-0.703,0.79-1.113,1.782-1.23,2.974l0.023,0.059h7.43v-0.351c0-1.099-0.324-2.018-0.973-2.758
			S214.312,88.694,213.202,88.694z"/>
		<path fill="#7B8F8A" d="M226.819,88.94l-1.043-0.07c-0.883,0-1.607,0.248-2.174,0.744s-0.971,1.178-1.213,2.045v8.754h-1.406
			v-12.68h1.23l0.176,2.109v0.141c0.367-0.781,0.859-1.391,1.477-1.828s1.352-0.656,2.203-0.656c0.18,0,0.354,0.014,0.521,0.041
			s0.307,0.057,0.416,0.088L226.819,88.94z"/>
		<path fill="#7B8F8A" d="M236.745,97.184c0-0.593-0.244-1.111-0.732-1.556s-1.369-0.807-2.643-1.087
			c-1.516-0.328-2.635-0.762-3.357-1.301s-1.084-1.301-1.084-2.285c0-0.969,0.408-1.787,1.225-2.455s1.896-1.002,3.24-1.002
			c1.43,0,2.562,0.354,3.398,1.061s1.234,1.592,1.195,2.654l-0.023,0.07h-1.301c0-0.695-0.295-1.301-0.885-1.816
			s-1.385-0.773-2.385-0.773c-1.023,0-1.791,0.22-2.303,0.659c-0.512,0.438-0.768,0.954-0.768,1.545
			c0,0.583,0.221,1.064,0.662,1.445s1.322,0.716,2.643,1.003c1.508,0.337,2.637,0.798,3.387,1.382s1.125,1.377,1.125,2.38
			c0,1.059-0.428,1.915-1.283,2.569s-1.986,0.981-3.393,0.981c-1.539,0-2.748-0.367-3.627-1.102s-1.295-1.609-1.248-2.625
			l0.023-0.07h1.289c0.055,0.91,0.428,1.571,1.119,1.983s1.506,0.618,2.443,0.618c1.016,0,1.816-0.222,2.402-0.666
			S236.745,97.815,236.745,97.184z"/>
		<path fill="#7B8F8A" d="M240.589,93.885c0-1.867,0.512-3.398,1.535-4.594s2.379-1.793,4.066-1.793
			c1.695,0,3.055,0.598,4.078,1.793s1.535,2.727,1.535,4.594v0.387c0,1.875-0.51,3.408-1.529,4.6s-2.373,1.787-4.061,1.787
			c-1.703,0-3.066-0.596-4.09-1.787s-1.535-2.725-1.535-4.6V93.885z M241.995,94.266c0,1.467,0.371,2.7,1.113,3.699
			s1.777,1.498,3.105,1.498c1.305,0,2.33-0.499,3.076-1.498s1.119-2.232,1.119-3.699v-0.387c0-1.443-0.375-2.669-1.125-3.676
			s-1.781-1.51-3.094-1.51s-2.34,0.503-3.082,1.51s-1.113,2.232-1.113,3.676V94.266z"/>
		<path fill="#7B8F8A" d="M255.976,87.733l0.129,2.215c0.406-0.781,0.955-1.385,1.646-1.811s1.51-0.639,2.455-0.639
			c1.375,0,2.422,0.42,3.141,1.26s1.078,2.15,1.078,3.932v7.723h-1.406v-7.727c0-1.456-0.271-2.485-0.814-3.088
			s-1.314-0.904-2.314-0.904c-0.984,0-1.787,0.261-2.408,0.781s-1.068,1.211-1.342,2.072v8.865h-1.406v-12.68H255.976z"/>
		<path fill="#7B8F8A" d="M276.12,100.413c-0.094-0.43-0.16-0.801-0.199-1.113s-0.059-0.629-0.059-0.949
			c-0.469,0.664-1.094,1.215-1.875,1.652s-1.66,0.656-2.637,0.656c-1.234,0-2.193-0.328-2.877-0.984s-1.025-1.535-1.025-2.637
			c0-1.172,0.506-2.109,1.518-2.812s2.377-1.055,4.096-1.055h2.801V91.6c0-0.906-0.291-1.617-0.873-2.133s-1.396-0.773-2.443-0.773
			c-0.977,0-1.787,0.246-2.432,0.738s-0.967,1.094-0.967,1.805l-1.289-0.012l-0.023-0.07c-0.047-0.945,0.385-1.791,1.295-2.537
			s2.068-1.119,3.475-1.119c1.398,0,2.523,0.355,3.375,1.066s1.277,1.73,1.277,3.059v6.234c0,0.445,0.025,0.879,0.076,1.301
			s0.135,0.84,0.252,1.254H276.12z M271.515,99.417c1.008,0,1.898-0.236,2.672-0.709s1.332-1.076,1.676-1.811v-2.648h-2.824
			c-1.273,0-2.291,0.271-3.053,0.814s-1.143,1.217-1.143,2.021c0,0.688,0.236,1.248,0.709,1.682S270.679,99.417,271.515,99.417z"/>
		<path fill="#7B8F8A" d="M282.565,100.413h-1.395V82.131h1.395V100.413z"/>
		<path fill="#7B8F8A" d="M293.464,87.733l0.129,2.098c0.406-0.742,0.947-1.316,1.623-1.723s1.482-0.609,2.42-0.609
			c0.969,0,1.779,0.234,2.432,0.703s1.119,1.184,1.4,2.145c0.383-0.891,0.928-1.588,1.635-2.092s1.568-0.756,2.584-0.756
			c1.352,0,2.395,0.449,3.129,1.348s1.102,2.289,1.102,4.172v7.395h-1.406V92.98c0-1.565-0.275-2.672-0.826-3.317
			s-1.318-0.969-2.303-0.969c-1.086,0-1.926,0.341-2.52,1.021c-0.594,0.682-0.961,1.554-1.102,2.619
			c0,0.055,0.002,0.133,0.006,0.234s0.006,0.176,0.006,0.223v7.621h-1.418V92.98c0-1.534-0.279-2.632-0.838-3.294
			c-0.559-0.661-1.326-0.992-2.303-0.992c-0.992,0-1.779,0.253-2.361,0.758s-0.99,1.184-1.225,2.037v8.924h-1.418v-12.68H293.464z"
			/>
		<path fill="#7B8F8A" d="M318.308,100.659c-1.586,0-2.904-0.586-3.955-1.758s-1.576-2.656-1.576-4.453v-0.645
			c0-1.812,0.521-3.316,1.564-4.512s2.307-1.793,3.791-1.793c1.555,0,2.777,0.492,3.668,1.477s1.336,2.297,1.336,3.938v1.195h-8.953
			v0.339c0,1.427,0.379,2.619,1.137,3.578s1.754,1.438,2.988,1.438c0.875,0,1.621-0.121,2.238-0.363s1.145-0.59,1.582-1.043
			l0.598,0.961c-0.477,0.502-1.08,0.9-1.811,1.197C320.185,100.51,319.315,100.659,318.308,100.659z M318.132,88.694
			c-1.039,0-1.91,0.396-2.613,1.187c-0.703,0.79-1.113,1.782-1.23,2.974l0.023,0.059h7.43v-0.351c0-1.099-0.324-2.018-0.973-2.758
			S319.241,88.694,318.132,88.694z"/>
		<path fill="#7B8F8A" d="M325.362,94.178c0-2.023,0.428-3.643,1.283-4.857s2.049-1.822,3.58-1.822c0.883,0,1.648,0.188,2.297,0.562
			s1.188,0.906,1.617,1.594v-7.523h1.395v18.281h-1.242l-0.117-1.84c-0.422,0.672-0.965,1.188-1.629,1.547s-1.445,0.539-2.344,0.539
			c-1.516,0-2.701-0.564-3.557-1.693s-1.283-2.643-1.283-4.541V94.178z M326.769,94.426c0,1.537,0.307,2.762,0.92,3.672
			s1.537,1.365,2.771,1.365c0.906,0,1.662-0.204,2.268-0.612c0.605-0.407,1.076-0.973,1.412-1.694v-5.979
			c-0.32-0.737-0.773-1.336-1.359-1.795s-1.352-0.688-2.297-0.688c-1.234,0-2.162,0.508-2.783,1.524
			c-0.621,1.016-0.932,2.336-0.932,3.96V94.426z"/>
		<path fill="#7B8F8A" d="M340.843,84.1h-1.395v-1.969h1.395V84.1z M340.843,100.413h-1.395v-12.68h1.395V100.413z"/>
		<path fill="#7B8F8A" d="M352.749,100.413c-0.094-0.43-0.16-0.801-0.199-1.113s-0.059-0.629-0.059-0.949
			c-0.469,0.664-1.094,1.215-1.875,1.652s-1.66,0.656-2.637,0.656c-1.234,0-2.193-0.328-2.877-0.984s-1.025-1.535-1.025-2.637
			c0-1.172,0.506-2.109,1.518-2.812s2.377-1.055,4.096-1.055h2.801V91.6c0-0.906-0.291-1.617-0.873-2.133s-1.396-0.773-2.443-0.773
			c-0.977,0-1.787,0.246-2.432,0.738s-0.967,1.094-0.967,1.805l-1.289-0.012l-0.023-0.07c-0.047-0.945,0.385-1.791,1.295-2.537
			s2.068-1.119,3.475-1.119c1.398,0,2.523,0.355,3.375,1.066s1.277,1.73,1.277,3.059v6.234c0,0.445,0.025,0.879,0.076,1.301
			s0.135,0.84,0.252,1.254H352.749z M348.144,99.417c1.008,0,1.898-0.236,2.672-0.709s1.332-1.076,1.676-1.811v-2.648h-2.824
			c-1.273,0-2.291,0.271-3.053,0.814s-1.143,1.217-1.143,2.021c0,0.688,0.236,1.248,0.709,1.682S347.308,99.417,348.144,99.417z"/>
		<path fill="#7B8F8A" d="M362.909,94.178c0-2.023,0.428-3.643,1.283-4.857s2.049-1.822,3.58-1.822c0.883,0,1.648,0.188,2.297,0.562
			s1.188,0.906,1.617,1.594v-7.523h1.395v18.281h-1.242l-0.117-1.84c-0.422,0.672-0.965,1.188-1.629,1.547s-1.445,0.539-2.344,0.539
			c-1.516,0-2.701-0.564-3.557-1.693s-1.283-2.643-1.283-4.541V94.178z M364.315,94.426c0,1.537,0.307,2.762,0.92,3.672
			s1.537,1.365,2.771,1.365c0.906,0,1.662-0.204,2.268-0.612c0.605-0.407,1.076-0.973,1.412-1.694v-5.979
			c-0.32-0.737-0.773-1.336-1.359-1.795s-1.352-0.688-2.297-0.688c-1.234,0-2.162,0.508-2.783,1.524
			c-0.621,1.016-0.932,2.336-0.932,3.96V94.426z"/>
		<path fill="#7B8F8A" d="M381.577,100.659c-1.586,0-2.904-0.586-3.955-1.758s-1.576-2.656-1.576-4.453v-0.645
			c0-1.812,0.521-3.316,1.564-4.512s2.307-1.793,3.791-1.793c1.555,0,2.777,0.492,3.668,1.477s1.336,2.297,1.336,3.938v1.195h-8.953
			v0.339c0,1.427,0.379,2.619,1.137,3.578s1.754,1.438,2.988,1.438c0.875,0,1.621-0.121,2.238-0.363s1.145-0.59,1.582-1.043
			l0.598,0.961c-0.477,0.502-1.08,0.9-1.811,1.197C383.454,100.51,382.585,100.659,381.577,100.659z M381.401,88.694
			c-1.039,0-1.91,0.396-2.613,1.187c-0.703,0.79-1.113,1.782-1.23,2.974l0.023,0.059h7.43v-0.351c0-1.099-0.324-2.018-0.973-2.758
			S382.511,88.694,381.401,88.694z"/>
		<path fill="#7B8F8A" d="M392.64,97.237l0.41,1.488h0.07l0.445-1.488l3.445-9.504h1.453l-4.816,12.68h-1.125l-4.828-12.68h1.453
			L392.64,97.237z"/>
		<path fill="#7B8F8A" d="M405.378,100.659c-1.586,0-2.904-0.586-3.955-1.758s-1.576-2.656-1.576-4.453v-0.645
			c0-1.812,0.521-3.316,1.564-4.512s2.307-1.793,3.791-1.793c1.555,0,2.777,0.492,3.668,1.477s1.336,2.297,1.336,3.938v1.195h-8.953
			v0.339c0,1.427,0.379,2.619,1.137,3.578s1.754,1.438,2.988,1.438c0.875,0,1.621-0.121,2.238-0.363s1.145-0.59,1.582-1.043
			l0.598,0.961c-0.477,0.502-1.08,0.9-1.811,1.197C407.255,100.51,406.386,100.659,405.378,100.659z M405.202,88.694
			c-1.039,0-1.91,0.396-2.613,1.187c-0.703,0.79-1.113,1.782-1.23,2.974l0.023,0.059h7.43v-0.351c0-1.099-0.324-2.018-0.973-2.758
			S406.312,88.694,405.202,88.694z"/>
		<path fill="#7B8F8A" d="M414.554,100.413h-1.395V82.131h1.395V100.413z"/>
		<path fill="#7B8F8A" d="M417.647,93.885c0-1.867,0.512-3.398,1.535-4.594s2.379-1.793,4.066-1.793
			c1.695,0,3.055,0.598,4.078,1.793s1.535,2.727,1.535,4.594v0.387c0,1.875-0.51,3.408-1.529,4.6s-2.373,1.787-4.061,1.787
			c-1.703,0-3.066-0.596-4.09-1.787s-1.535-2.725-1.535-4.6V93.885z M419.054,94.266c0,1.467,0.371,2.7,1.113,3.699
			s1.777,1.498,3.105,1.498c1.305,0,2.33-0.499,3.076-1.498s1.119-2.232,1.119-3.699v-0.387c0-1.443-0.375-2.669-1.125-3.676
			s-1.781-1.51-3.094-1.51s-2.34,0.503-3.082,1.51s-1.113,2.232-1.113,3.676V94.266z"/>
		<path fill="#7B8F8A" d="M441.999,94.424c0,1.898-0.43,3.412-1.289,4.541s-2.043,1.693-3.551,1.693
			c-0.891,0-1.67-0.168-2.338-0.504s-1.213-0.816-1.635-1.441v6.574h-1.406V87.733h1.184l0.176,1.969
			c0.422-0.703,0.967-1.246,1.635-1.629s1.455-0.574,2.361-0.574c1.523,0,2.715,0.607,3.574,1.822s1.289,2.834,1.289,4.857V94.424z
			 M440.593,94.161c0-1.611-0.32-2.925-0.961-3.941s-1.578-1.525-2.812-1.525c-0.945,0-1.713,0.225-2.303,0.675
			c-0.59,0.449-1.033,1.034-1.33,1.754v6.101c0.32,0.695,0.783,1.243,1.389,1.642c0.605,0.399,1.361,0.599,2.268,0.599
			c1.227,0,2.158-0.461,2.795-1.385c0.637-0.922,0.955-2.146,0.955-3.672V94.161z"/>
		<path fill="#7B8F8A" d="M446.335,87.733l0.129,2.098c0.406-0.742,0.947-1.316,1.623-1.723s1.482-0.609,2.42-0.609
			c0.969,0,1.779,0.234,2.432,0.703s1.119,1.184,1.4,2.145c0.383-0.891,0.928-1.588,1.635-2.092s1.568-0.756,2.584-0.756
			c1.352,0,2.395,0.449,3.129,1.348s1.102,2.289,1.102,4.172v7.395h-1.406V92.98c0-1.565-0.275-2.672-0.826-3.317
			s-1.318-0.969-2.303-0.969c-1.086,0-1.926,0.341-2.52,1.021c-0.594,0.682-0.961,1.554-1.102,2.619
			c0,0.055,0.002,0.133,0.006,0.234s0.006,0.176,0.006,0.223v7.621h-1.418V92.98c0-1.534-0.279-2.632-0.838-3.294
			c-0.559-0.661-1.326-0.992-2.303-0.992c-0.992,0-1.779,0.253-2.361,0.758s-0.99,1.184-1.225,2.037v8.924h-1.418v-12.68H446.335z"
			/>
		<path fill="#7B8F8A" d="M471.179,100.659c-1.586,0-2.904-0.586-3.955-1.758s-1.576-2.656-1.576-4.453v-0.645
			c0-1.812,0.521-3.316,1.564-4.512s2.307-1.793,3.791-1.793c1.555,0,2.777,0.492,3.668,1.477s1.336,2.297,1.336,3.938v1.195h-8.953
			v0.339c0,1.427,0.379,2.619,1.137,3.578s1.754,1.438,2.988,1.438c0.875,0,1.621-0.121,2.238-0.363s1.145-0.59,1.582-1.043
			l0.598,0.961c-0.477,0.502-1.08,0.9-1.811,1.197C473.056,100.51,472.187,100.659,471.179,100.659z M471.003,88.694
			c-1.039,0-1.91,0.396-2.613,1.187c-0.703,0.79-1.113,1.782-1.23,2.974l0.023,0.059h7.43v-0.351c0-1.099-0.324-2.018-0.973-2.758
			S472.112,88.694,471.003,88.694z"/>
		<path fill="#7B8F8A" d="M480.026,87.733l0.129,2.215c0.406-0.781,0.955-1.385,1.646-1.811s1.51-0.639,2.455-0.639
			c1.375,0,2.422,0.42,3.141,1.26s1.078,2.15,1.078,3.932v7.723h-1.406v-7.727c0-1.456-0.271-2.485-0.814-3.088
			s-1.314-0.904-2.314-0.904c-0.984,0-1.787,0.261-2.408,0.781s-1.068,1.211-1.342,2.072v8.865h-1.406v-12.68H480.026z"/>
		<path fill="#7B8F8A" d="M494.347,84.487v3.246h2.789v1.148h-2.789v8.262c0,0.828,0.15,1.416,0.451,1.764s0.701,0.521,1.201,0.521
			c0.227,0,0.447-0.01,0.662-0.029s0.463-0.053,0.744-0.1l0.211,1.043c-0.234,0.102-0.52,0.18-0.855,0.234s-0.672,0.082-1.008,0.082
			c-0.891,0-1.584-0.281-2.08-0.844s-0.744-1.453-0.744-2.672v-8.262h-2.191v-1.148h2.191v-3.246H494.347z"/>
	</g>
</g>
<g id="podlove_logo">
	<g>
		<path d="M126.184,72.345H88.382v9.001c0,4.8,0,4.5,0,8.8H77.781V34.143c0-4.801,0-4.4,0-8.801h48.403
			c10.8,0,14.801,6,14.801,14.601v17.802C140.985,66.345,136.984,72.345,126.184,72.345z M130.384,38.143c0-2.601-1-3.601-3.3-3.601
			H91.682c-2.3,0-3.3,1-3.3,3.601v21.401c0,2.601,1,3.601,3.3,3.601h35.402c2.3,0,3.3-1,3.3-3.601V38.143z"/>
		<path d="M197.783,72.345H160.98c-10.601,0-13.601-4.4-13.601-14.201V39.543c0-9.801,3-14.201,13.601-14.201h36.803
			c10.601,0,13.601,4.4,13.601,14.201v18.601C211.384,67.945,208.384,72.345,197.783,72.345z M200.783,38.343
			c0-2.7-0.8-3.801-3.6-3.801h-35.802c-2.6,0-3.4,1.101-3.4,3.801v21.001c0,2.7,0.8,3.801,3.4,3.801h35.802
			c2.8,0,3.6-1.101,3.6-3.801V38.343z"/>
		<path d="M232.58,72.345c-11.201,0-14.801-5.601-14.801-14.601V39.943c0-9.4,3.7-14.601,14.801-14.601h37.802
			c0,0,0-14.101,0-17.001h10.601v55.203c0,4.801,0,5.501,0,8.801H232.58z M270.382,38.143c0-2.601-1-3.601-3.3-3.601H231.68
			c-2.3,0-3.3,1-3.3,3.601v21.401c0,2.601,1,3.601,3.3,3.601h35.402c2.3,0,3.3-1,3.3-3.601V38.143z"/>
		<path d="M288.878,72.345V8.341h10.601v64.004H288.878z"/>
		<path d="M357.581,72.345h-36.803c-10.601,0-13.601-4.4-13.601-14.201V39.543c0-9.801,3-14.201,13.601-14.201h36.803
			c10.601,0,13.601,4.4,13.601,14.201v18.601C371.182,67.945,368.182,72.345,357.581,72.345z M360.581,38.343
			c0-2.7-0.8-3.801-3.601-3.801h-35.802c-2.601,0-3.4,1.101-3.4,3.801v21.001c0,2.7,0.8,3.801,3.4,3.801h35.802
			c2.801,0,3.601-1.101,3.601-3.801V38.343z"/>
		<path d="M412.576,72.345h-0.3h-11.801h-0.3l-28.802-47.003h12.101l22.901,37.402l22.901-37.402h12.101L412.576,72.345z"/>
		<path d="M452.172,53.944v4.4c0,3.4,1.601,4.801,5.4,4.801h38.002v9.2h-40.402c-10.601,0-13.601-4.3-13.601-14.201V39.543
			c0-9.801,2.4-14.201,13.601-14.201h35.902c11.201,0,13.601,3.9,13.601,14.201v14.4H452.172z M494.675,38.343
			c0-2.7-0.801-3.801-3.4-3.801h-35.702c-2.601,0-3.4,1.101-3.4,3.801v6.4h42.503V38.343z"/>
	</g>
	<g id="podlove_signet_1_">
		<path d="M48.871,9.032c2.333,0,4.232,1.898,4.232,4.232v72.01c0,2.333-1.899,4.231-4.232,4.231H13.263
			c-2.333,0-4.231-1.898-4.231-4.231v-72.01c0-2.333,1.898-4.232,4.231-4.232H48.871 M48.871,0H13.263C5.939,0,0,5.939,0,13.264
			v72.01c0,7.324,5.939,13.263,13.263,13.263h35.608c7.325,0,13.264-5.938,13.264-13.263v-72.01C62.135,5.939,56.196,0,48.871,0
			L48.871,0z"/>
		<path d="M31.016,57.224c5.893,0,10.67,4.778,10.67,10.671s-4.777,10.672-10.67,10.672c-5.893-0.003-10.671-4.779-10.671-10.672
			S25.123,57.224,31.016,57.224 M31.016,49.439c-10.177,0-18.456,8.279-18.456,18.456c0,10.172,8.277,18.451,18.451,18.457
			c10.181,0,18.459-8.28,18.459-18.457S41.191,49.439,31.016,49.439L31.016,49.439z"/>
		
			<path display="none" fill-rule="evenodd" clip-rule="evenodd" fill="none" stroke="#000000" stroke-width="7.4342" stroke-miterlimit="10" d="
			M42.587,28.894L30.857,40.63L19.131,28.894c-1.32-1.345-2.133-3.185-2.133-5.216c0-4.115,3.335-7.449,7.449-7.449
			c2.73,0,5.114,1.466,6.413,3.656c1.297-2.19,3.682-3.656,6.41-3.656c4.113,0,7.449,3.333,7.449,7.449
			C44.719,25.708,43.906,27.551,42.587,28.894z"/>
		<path d="M30.857,45.888L16.502,31.521c-2.085-2.125-3.221-4.902-3.221-7.844c0-6.157,5.009-11.166,11.166-11.166
			c2.321,0,4.558,0.734,6.413,2.033c1.854-1.299,4.088-2.033,6.41-2.033c6.158,0,11.166,5.009,11.166,11.166
			c0,2.943-1.136,5.72-3.195,7.819L30.857,45.888z M24.447,19.946c-2.058,0-3.731,1.674-3.731,3.732c0,0.982,0.38,1.91,1.069,2.612
			l9.073,9.081l9.1-9.105c0.666-0.678,1.045-1.605,1.045-2.588c0-2.058-1.674-3.732-3.732-3.732c-1.332,0-2.533,0.686-3.213,1.834
			l-3.197,3.646l-3.199-3.646C26.98,20.631,25.779,19.946,24.447,19.946z"/>
		<path fill-rule="evenodd" clip-rule="evenodd" fill="#181716" d="M31.016,62.963c2.723,0,4.933,2.209,4.933,4.932
			c0,2.725-2.21,4.931-4.933,4.931c-2.724,0-4.931-2.206-4.931-4.931C26.084,65.172,28.292,62.963,31.016,62.963z"/>
	</g>
</g>
<g id="hilfslinien">
</g>
</svg>
