<?xml version="1.0" encoding="utf-8"?>
<!-- Generator: Adobe Illustrator 16.0.4, SVG Export Plug-In . SVG Version: 6.00 Build 0)  -->
<!DOCTYPE svg PUBLIC "-//W3C//DTD SVG 1.1//EN" "http://www.w3.org/Graphics/SVG/1.1/DTD/svg11.dtd">
<svg version="1.1" xmlns="http://www.w3.org/2000/svg" xmlns:xlink="http://www.w3.org/1999/xlink" x="0px" y="0px"
	 width="692.301px" height="103.155px" viewBox="0 0 692.301 103.155" enable-background="new 0 0 692.301 103.155"
	 xml:space="preserve">
<g id="text">
</g>
<g id="podlove_logo">
	<g>
		<path d="M19.357,25.596H4.239v3.6c0,1.92,0,1.8,0,3.52H0V10.318c0-1.92,0-1.76,0-3.52h19.357c4.319,0,5.919,2.399,5.919,5.839
			v7.119C25.276,23.196,23.676,25.596,19.357,25.596z M21.037,11.918c0-1.04-0.4-1.439-1.32-1.439H5.559
			c-0.92,0-1.32,0.399-1.32,1.439v8.559c0,1.04,0.4,1.439,1.32,1.439h14.158c0.92,0,1.32-0.399,1.32-1.439V11.918z"/>
		<path d="M47.997,25.596H33.279c-4.239,0-5.439-1.76-5.439-5.679v-7.439c0-3.919,1.2-5.679,5.439-5.679h14.718
			c4.239,0,5.439,1.76,5.439,5.679v7.439C53.436,23.836,52.236,25.596,47.997,25.596z M49.196,11.998c0-1.08-0.32-1.52-1.44-1.52
			H33.439c-1.04,0-1.36,0.439-1.36,1.52v8.398c0,1.08,0.32,1.52,1.36,1.52h14.317c1.12,0,1.44-0.439,1.44-1.52V11.998z"/>
		<path d="M61.918,25.596c-4.479,0-5.919-2.239-5.919-5.839v-7.119c0-3.759,1.48-5.839,5.919-5.839h15.118c0,0,0-5.639,0-6.799
			h4.239v22.076c0,1.92,0,2.2,0,3.52H61.918z M77.036,11.918c0-1.04-0.4-1.439-1.32-1.439H61.559c-0.92,0-1.32,0.399-1.32,1.439
			v8.559c0,1.04,0.4,1.439,1.32,1.439h14.158c0.92,0,1.32-0.399,1.32-1.439V11.918z"/>
		<path d="M84.439,25.596V0h4.239v25.596H84.439z"/>
		<path d="M111.916,25.596H97.198c-4.239,0-5.439-1.76-5.439-5.679v-7.439c0-3.919,1.2-5.679,5.439-5.679h14.718
			c4.239,0,5.438,1.76,5.438,5.679v7.439C117.354,23.836,116.155,25.596,111.916,25.596z M113.115,11.998
			c0-1.08-0.319-1.52-1.439-1.52H97.358c-1.04,0-1.359,0.439-1.359,1.52v8.398c0,1.08,0.319,1.52,1.359,1.52h14.317
			c1.12,0,1.439-0.439,1.439-1.52V11.998z"/>
		<path d="M133.915,25.596h-0.12h-4.719h-0.12L117.437,6.799h4.84l9.158,14.958l9.158-14.958h4.84L133.915,25.596z"/>
		<path d="M149.755,18.237v1.76c0,1.359,0.64,1.919,2.159,1.919h15.197v3.68h-16.157c-4.239,0-5.438-1.72-5.438-5.679v-7.439
			c0-3.919,0.959-5.679,5.438-5.679h14.357c4.479,0,5.439,1.56,5.439,5.679v5.76H149.755z M166.752,11.998
			c0-1.08-0.32-1.52-1.36-1.52h-14.277c-1.04,0-1.359,0.439-1.359,1.52v2.56h16.997V11.998z"/>
	</g>
	<g>
		<path fill="#61B66D" d="M86.575,85.667c0-2.205-0.73-3.91-2.191-5.113s-4.082-2.478-7.863-3.824
			c-7.906-2.492-13.765-5.163-17.574-8.014c-3.811-2.85-5.715-6.968-5.715-12.354c0-5.242,2.27-9.481,6.811-12.719
			c4.54-3.236,10.305-4.855,17.295-4.855c6.932,0,12.611,1.783,17.037,5.35s6.566,8.157,6.424,13.771l-0.086,0.258H86.618
			c0-2.492-0.846-4.519-2.535-6.08c-1.69-1.561-4.025-2.342-7.004-2.342c-2.922,0-5.214,0.645-6.875,1.934
			c-1.662,1.289-2.492,2.879-2.492,4.77c0,1.834,0.838,3.302,2.514,4.404c1.676,1.104,4.819,2.485,9.432,4.146
			c7.104,2.12,12.453,4.727,16.049,7.82c3.595,3.094,5.393,7.348,5.393,12.762c0,5.5-2.142,9.805-6.424,12.912
			c-4.283,3.108-9.962,4.662-17.037,4.662c-7.104,0-13.249-1.783-18.434-5.35c-5.186-3.566-7.706-8.701-7.562-15.404l0.086-0.258
			h14.137c0,3.609,0.974,6.188,2.922,7.734c1.947,1.547,4.898,2.32,8.852,2.32c3.008,0,5.249-0.602,6.725-1.805
			C85.837,89.19,86.575,87.615,86.575,85.667z"/>
		<path fill="#61B66D" d="M132.513,96.753c-1.49,2.062-3.316,3.646-5.479,4.748c-2.163,1.103-4.605,1.654-7.326,1.654
			c-4.812,0-8.587-1.547-11.322-4.641c-2.736-3.094-4.104-7.892-4.104-14.395V55.761h14.48v28.445c0,2.607,0.494,4.555,1.482,5.844
			s2.398,1.934,4.232,1.934c1.547,0,2.907-0.215,4.082-0.645c1.174-0.43,2.177-1.074,3.008-1.934V55.761h14.523v46.492h-12.676
			L132.513,96.753z"/>
		<path fill="#61B66D" d="M195.377,79.995c0,7.076-1.519,12.705-4.555,16.887c-3.037,4.183-7.534,6.273-13.492,6.273
			c-2.55,0-4.77-0.552-6.66-1.654s-3.495-2.686-4.812-4.748l-0.945,5.5h-12.59V35.222h14.523v25.051
			c1.289-1.719,2.785-3.043,4.49-3.975c1.704-0.931,3.674-1.396,5.908-1.396c5.986,0,10.506,2.191,13.557,6.574
			s4.576,10.256,4.576,17.617V79.995z M180.896,79.093c0-4.125-0.516-7.326-1.547-9.604s-2.951-3.416-5.758-3.416
			c-1.576,0-2.93,0.294-4.061,0.881c-1.132,0.588-2.027,1.439-2.686,2.557v19.508c0.688,1.003,1.59,1.748,2.707,2.234
			c1.117,0.487,2.492,0.73,4.125,0.73c2.864,0,4.783-0.995,5.758-2.986c0.974-1.99,1.461-4.991,1.461-9.002V79.093z"/>
		<path fill="#61B66D" d="M224.254,89.19c0-1.146-0.652-2.17-1.955-3.072c-1.304-0.902-3.674-1.711-7.111-2.428
			c-5.414-1.06-9.496-2.707-12.246-4.941s-4.125-5.285-4.125-9.152c0-4.096,1.719-7.569,5.156-10.42
			c3.438-2.85,8.092-4.275,13.965-4.275c6.188,0,11.114,1.383,14.781,4.146c3.666,2.765,5.414,6.338,5.242,10.721l-0.086,0.258
			h-14.094c0-1.833-0.466-3.223-1.396-4.168c-0.932-0.945-2.428-1.418-4.49-1.418c-1.519,0-2.793,0.416-3.824,1.246
			c-1.031,0.831-1.547,1.891-1.547,3.18c0,1.232,0.594,2.277,1.783,3.137c1.188,0.859,3.588,1.633,7.197,2.32
			c5.672,1.117,9.875,2.786,12.611,5.006c2.735,2.221,4.104,5.364,4.104,9.432c0,4.183-1.855,7.627-5.564,10.334
			c-3.71,2.707-8.615,4.061-14.717,4.061c-6.331,0-11.337-1.604-15.018-4.812c-3.682-3.208-5.436-6.789-5.264-10.742l0.086-0.258
			h13.148c0.057,2.206,0.723,3.796,1.998,4.77c1.274,0.975,3.086,1.461,5.436,1.461c1.947,0,3.423-0.379,4.426-1.139
			C223.752,91.676,224.254,90.595,224.254,89.19z"/>
		<path fill="#61B66D" d="M263.143,91.983c1.947,0,3.395-0.529,4.34-1.59c0.945-1.06,1.418-2.621,1.418-4.684h13.277l0.086,0.258
			c0.114,5.07-1.641,9.203-5.264,12.396c-3.624,3.194-8.243,4.791-13.857,4.791c-7.047,0-12.482-2.191-16.307-6.574
			S241.1,86.513,241.1,79.522v-0.988c0-6.961,1.904-12.64,5.715-17.037c3.81-4.396,9.209-6.596,16.199-6.596
			c5.9,0,10.613,1.647,14.137,4.941c3.523,3.295,5.228,7.777,5.113,13.449l-0.086,0.258H268.9c0-2.205-0.487-4.003-1.461-5.393
			c-0.975-1.389-2.449-2.084-4.426-2.084c-2.75,0-4.677,1.132-5.779,3.395c-1.104,2.264-1.654,5.285-1.654,9.066v0.988
			c0,3.896,0.551,6.947,1.654,9.152C258.337,90.881,260.307,91.983,263.143,91.983z"/>
		<path fill="#61B66D" d="M312.73,68.565l-5.285-0.043c-1.662,0-3.022,0.279-4.082,0.838c-1.061,0.559-1.848,1.354-2.363,2.385
			v30.508h-14.523V55.761h13.664l0.516,6.832c0.974-2.435,2.263-4.325,3.867-5.672c1.604-1.346,3.48-2.02,5.629-2.02
			c0.688,0,1.389,0.051,2.105,0.15c0.716,0.101,1.346,0.223,1.891,0.365L312.73,68.565z"/>
		<path fill="#61B66D" d="M332.454,44.976h-14.566v-9.754h14.566V44.976z M332.454,102.253h-14.566V55.761h14.566V102.253z"/>
		<path fill="#61B66D" d="M380.884,79.995c0,7.076-1.519,12.705-4.555,16.887c-3.037,4.183-7.534,6.273-13.492,6.273
			c-2.55,0-4.77-0.552-6.66-1.654s-3.495-2.686-4.812-4.748l-0.945,5.5h-12.59V35.222h14.523v25.051
			c1.289-1.719,2.785-3.043,4.49-3.975c1.704-0.931,3.674-1.396,5.908-1.396c5.986,0,10.506,2.191,13.557,6.574
			s4.576,10.256,4.576,17.617V79.995z M366.403,79.093c0-4.125-0.516-7.326-1.547-9.604s-2.951-3.416-5.758-3.416
			c-1.576,0-2.93,0.294-4.061,0.881c-1.132,0.588-2.027,1.439-2.686,2.557v19.508c0.688,1.003,1.59,1.748,2.707,2.234
			c1.117,0.487,2.492,0.73,4.125,0.73c2.864,0,4.783-0.995,5.758-2.986c0.974-1.99,1.461-4.991,1.461-9.002V79.093z"/>
		<path fill="#61B66D" d="M406.753,103.155c-6.847,0-12.311-2.148-16.393-6.445s-6.123-9.682-6.123-16.156v-1.633
			c0-7.075,1.854-12.854,5.564-17.338c3.709-4.482,9.016-6.71,15.92-6.682c6.302,0,11.243,1.891,14.824,5.672
			c3.58,3.781,5.371,8.909,5.371,15.383v7.605h-26.555l-0.086,0.258c0.314,2.378,1.289,4.333,2.922,5.865
			c1.633,1.533,3.81,2.299,6.531,2.299c2.75,0,4.948-0.215,6.596-0.645c1.646-0.43,3.73-1.174,6.252-2.234l3.438,8.852
			c-2.034,1.49-4.662,2.729-7.885,3.717S410.448,103.155,406.753,103.155z M405.722,66.073c-2.092,0-3.66,0.745-4.705,2.234
			c-1.046,1.49-1.684,3.48-1.912,5.973l0.129,0.215h12.504v-1.117c0-2.349-0.487-4.153-1.461-5.414
			C409.302,66.704,407.784,66.073,405.722,66.073z"/>
		<path fill="#61B66D" d="M444.188,102.253V39.69h21.484c7.763,0,13.821,1.439,18.176,4.318c4.354,2.879,6.531,7.169,6.531,12.869
			c0,2.979-0.702,5.629-2.105,7.949c-1.404,2.32-3.566,4.068-6.488,5.242c3.666,0.831,6.373,2.5,8.121,5.006
			c1.747,2.507,2.621,5.393,2.621,8.658c0,6.102-2.049,10.714-6.145,13.836c-4.097,3.123-9.969,4.684-17.617,4.684H444.188z
			 M458.755,65.772h7.219c3.294-0.057,5.758-0.694,7.391-1.912c1.633-1.217,2.449-3,2.449-5.35c0-2.664-0.831-4.604-2.492-5.822
			c-1.662-1.217-4.211-1.826-7.648-1.826h-6.918V65.772z M458.755,75.397v15.684h10.012c3.094,0,5.414-0.608,6.961-1.826
			c1.547-1.217,2.32-3.086,2.32-5.607c0-2.721-0.666-4.776-1.998-6.166c-1.332-1.389-3.488-2.084-6.467-2.084H458.755z"/>
		<path fill="#61B66D" d="M524.286,96.753c-1.49,2.062-3.316,3.646-5.479,4.748c-2.163,1.103-4.605,1.654-7.326,1.654
			c-4.812,0-8.587-1.547-11.322-4.641c-2.736-3.094-4.104-7.892-4.104-14.395V55.761h14.48v28.445c0,2.607,0.494,4.555,1.482,5.844
			s2.398,1.934,4.232,1.934c1.547,0,2.907-0.215,4.082-0.645c1.174-0.43,2.177-1.074,3.008-1.934V55.761h14.523v46.492h-12.676
			L524.286,96.753z"/>
		<path fill="#61B66D" d="M561.283,44.202v11.559h7.863v10.055h-7.863v21.312c0,1.662,0.336,2.857,1.01,3.588
			c0.673,0.73,1.582,1.096,2.729,1.096c0.916,0,1.64-0.028,2.17-0.086c0.529-0.057,1.21-0.172,2.041-0.344l1.031,10.742
			c-1.604,0.372-3.051,0.637-4.34,0.795c-1.289,0.157-2.808,0.236-4.555,0.236c-4.784,0-8.408-1.274-10.871-3.824
			c-2.464-2.549-3.695-6.588-3.695-12.117V65.815h-6.531V55.761h6.531V44.202H561.283z"/>
		<path fill="#61B66D" d="M593.166,44.202v11.559h7.863v10.055h-7.863v21.312c0,1.662,0.336,2.857,1.01,3.588
			c0.673,0.73,1.582,1.096,2.729,1.096c0.916,0,1.64-0.028,2.17-0.086c0.529-0.057,1.21-0.172,2.041-0.344l1.031,10.742
			c-1.604,0.372-3.051,0.637-4.34,0.795c-1.289,0.157-2.808,0.236-4.555,0.236c-4.784,0-8.408-1.274-10.871-3.824
			c-2.464-2.549-3.695-6.588-3.695-12.117V65.815h-6.531V55.761h6.531V44.202H593.166z"/>
		<path fill="#61B66D" d="M602.879,78.577c0-6.989,1.977-12.683,5.93-17.08c3.953-4.396,9.467-6.596,16.543-6.596
			c7.104,0,12.633,2.199,16.586,6.596c3.953,4.397,5.93,10.091,5.93,17.08v0.902c0,7.019-1.977,12.719-5.93,17.102
			s-9.453,6.574-16.5,6.574c-7.133,0-12.676-2.191-16.629-6.574s-5.93-10.083-5.93-17.102V78.577z M617.402,79.479
			c0,3.896,0.608,6.954,1.826,9.174c1.217,2.221,3.287,3.33,6.209,3.33c2.836,0,4.869-1.117,6.102-3.352
			c1.231-2.234,1.848-5.285,1.848-9.152v-0.902c0-3.781-0.616-6.811-1.848-9.088c-1.232-2.277-3.295-3.416-6.188-3.416
			c-2.865,0-4.906,1.146-6.123,3.438c-1.218,2.292-1.826,5.314-1.826,9.066V79.479z"/>
		<path fill="#61B66D" d="M664.113,55.761l0.559,6.531c1.518-2.32,3.395-4.132,5.629-5.436c2.234-1.303,4.727-1.955,7.477-1.955
			c4.555,0,8.113,1.476,10.678,4.426c2.563,2.951,3.846,7.648,3.846,14.094v28.832h-14.523V73.378c0-2.664-0.552-4.547-1.654-5.65
			c-1.104-1.103-2.729-1.654-4.877-1.654c-1.347,0-2.543,0.244-3.588,0.73c-1.046,0.487-1.941,1.16-2.686,2.02v33.43h-14.48V55.761
			H664.113z"/>
	</g>
</g>
<g id="hilfslinien">
</g>
</svg>
