<?xml version="1.0" encoding="utf-8"?>
<!-- Generator: Adobe Illustrator 16.0.4, SVG Export Plug-In . SVG Version: 6.00 Build 0)  -->
<!DOCTYPE svg PUBLIC "-//W3C//DTD SVG 1.1//EN" "http://www.w3.org/Graphics/SVG/1.1/DTD/svg11.dtd">
<svg version="1.1" xmlns="http://www.w3.org/2000/svg" xmlns:xlink="http://www.w3.org/1999/xlink" x="0px" y="0px"
	 width="406.898px" height="103.155px" viewBox="0 0 406.898 103.155" enable-background="new 0 0 406.898 103.155"
	 xml:space="preserve">
<g id="text">
</g>
<g id="podlove_logo">
	<g>
		<path d="M19.357,25.596H4.239v3.6c0,1.92,0,1.8,0,3.52H0V10.318c0-1.92,0-1.76,0-3.52h19.357c4.319,0,5.919,2.399,5.919,5.839
			v7.119C25.276,23.196,23.676,25.596,19.357,25.596z M21.037,11.918c0-1.04-0.4-1.439-1.32-1.439H5.559
			c-0.92,0-1.32,0.399-1.32,1.439v8.559c0,1.04,0.4,1.439,1.32,1.439h14.158c0.92,0,1.32-0.399,1.32-1.439V11.918z"/>
		<path d="M47.997,25.596H33.279c-4.239,0-5.439-1.76-5.439-5.679v-7.439c0-3.919,1.2-5.679,5.439-5.679h14.718
			c4.239,0,5.439,1.76,5.439,5.679v7.439C53.436,23.836,52.236,25.596,47.997,25.596z M49.196,11.998c0-1.08-0.32-1.52-1.44-1.52
			H33.439c-1.04,0-1.36,0.439-1.36,1.52v8.398c0,1.08,0.32,1.52,1.36,1.52h14.317c1.12,0,1.44-0.439,1.44-1.52V11.998z"/>
		<path d="M61.918,25.596c-4.479,0-5.919-2.239-5.919-5.839v-7.119c0-3.759,1.48-5.839,5.919-5.839h15.118c0,0,0-5.639,0-6.799
			h4.239v22.076c0,1.92,0,2.2,0,3.52H61.918z M77.036,11.918c0-1.04-0.4-1.439-1.32-1.439H61.559c-0.92,0-1.32,0.399-1.32,1.439
			v8.559c0,1.04,0.4,1.439,1.32,1.439h14.158c0.92,0,1.32-0.399,1.32-1.439V11.918z"/>
		<path d="M84.439,25.596V0h4.239v25.596H84.439z"/>
		<path d="M111.916,25.596H97.198c-4.239,0-5.439-1.76-5.439-5.679v-7.439c0-3.919,1.2-5.679,5.439-5.679h14.718
			c4.239,0,5.438,1.76,5.438,5.679v7.439C117.354,23.836,116.155,25.596,111.916,25.596z M113.115,11.998
			c0-1.08-0.319-1.52-1.439-1.52H97.358c-1.04,0-1.359,0.439-1.359,1.52v8.398c0,1.08,0.319,1.52,1.359,1.52h14.317
			c1.12,0,1.439-0.439,1.439-1.52V11.998z"/>
		<path d="M133.915,25.596h-0.12h-4.719h-0.12L117.437,6.799h4.84l9.158,14.958l9.158-14.958h4.84L133.915,25.596z"/>
		<path d="M149.755,18.237v1.76c0,1.359,0.64,1.919,2.159,1.919h15.197v3.68h-16.157c-4.239,0-5.438-1.72-5.438-5.679v-7.439
			c0-3.919,0.959-5.679,5.438-5.679h14.357c4.479,0,5.439,1.56,5.439,5.679v5.76H149.755z M166.752,11.998
			c0-1.08-0.32-1.52-1.36-1.52h-14.277c-1.04,0-1.359,0.439-1.359,1.52v2.56h16.997V11.998z"/>
	</g>
	<g>
		<path fill="#469CD1" d="M62.747,80.812v21.441H48.181V39.69h25.395c7.419,0,13.306,1.898,17.66,5.693
			c4.354,3.796,6.531,8.759,6.531,14.889c0,6.159-2.177,11.122-6.531,14.889c-4.354,3.768-10.241,5.65-17.66,5.65H62.747z
			 M62.747,69.64h10.828c3.151,0,5.55-0.866,7.197-2.6c1.647-1.732,2.471-3.96,2.471-6.682c0-2.778-0.824-5.056-2.471-6.832
			c-1.647-1.775-4.046-2.664-7.197-2.664H62.747V69.64z"/>
		<path fill="#469CD1" d="M131.284,96.753c-1.49,2.062-3.316,3.646-5.479,4.748c-2.163,1.103-4.605,1.654-7.326,1.654
			c-4.812,0-8.587-1.547-11.322-4.641c-2.736-3.094-4.104-7.892-4.104-14.395V55.761h14.48v28.445c0,2.607,0.494,4.555,1.482,5.844
			s2.399,1.934,4.232,1.934c1.547,0,2.907-0.215,4.082-0.645c1.174-0.43,2.177-1.074,3.008-1.934V55.761h14.523v46.492h-12.676
			L131.284,96.753z"/>
		<path fill="#469CD1" d="M194.149,79.995c0,7.076-1.519,12.705-4.555,16.887c-3.037,4.183-7.534,6.273-13.492,6.273
			c-2.55,0-4.77-0.552-6.66-1.654s-3.495-2.686-4.812-4.748l-0.945,5.5h-12.59V35.222h14.523v25.051
			c1.289-1.719,2.786-3.043,4.49-3.975c1.704-0.931,3.674-1.396,5.908-1.396c5.987,0,10.506,2.191,13.557,6.574
			s4.576,10.256,4.576,17.617V79.995z M179.668,79.093c0-4.125-0.516-7.326-1.547-9.604s-2.951-3.416-5.758-3.416
			c-1.576,0-2.929,0.294-4.061,0.881c-1.132,0.588-2.027,1.439-2.686,2.557v19.508c0.688,1.003,1.59,1.748,2.707,2.234
			c1.117,0.487,2.492,0.73,4.125,0.73c2.864,0,4.784-0.995,5.758-2.986c0.974-1.99,1.461-4.991,1.461-9.002V79.093z"/>
		<path fill="#469CD1" d="M214.002,102.253h-14.566V35.222h14.566V102.253z"/>
		<path fill="#469CD1" d="M236.347,44.976h-14.566v-9.754h14.566V44.976z M236.347,102.253h-14.566V55.761h14.566V102.253z"/>
		<path fill="#469CD1" d="M267.717,89.19c0-1.146-0.652-2.17-1.955-3.072c-1.304-0.902-3.674-1.711-7.111-2.428
			c-5.414-1.06-9.496-2.707-12.246-4.941s-4.125-5.285-4.125-9.152c0-4.096,1.719-7.569,5.156-10.42
			c3.438-2.85,8.092-4.275,13.965-4.275c6.188,0,11.114,1.383,14.781,4.146c3.666,2.765,5.414,6.338,5.242,10.721l-0.086,0.258
			h-14.094c0-1.833-0.466-3.223-1.396-4.168c-0.932-0.945-2.428-1.418-4.49-1.418c-1.519,0-2.793,0.416-3.824,1.246
			c-1.031,0.831-1.547,1.891-1.547,3.18c0,1.232,0.594,2.277,1.783,3.137c1.188,0.859,3.588,1.633,7.197,2.32
			c5.672,1.117,9.875,2.786,12.611,5.006c2.735,2.221,4.104,5.364,4.104,9.432c0,4.183-1.855,7.627-5.564,10.334
			c-3.71,2.707-8.615,4.061-14.717,4.061c-6.331,0-11.337-1.604-15.018-4.812c-3.682-3.208-5.436-6.789-5.264-10.742l0.086-0.258
			h13.148c0.057,2.206,0.723,3.796,1.998,4.77c1.274,0.975,3.086,1.461,5.436,1.461c1.947,0,3.423-0.379,4.426-1.139
			C267.215,91.676,267.717,90.595,267.717,89.19z"/>
		<path fill="#469CD1" d="M300.848,61.519c1.403-2.091,3.115-3.717,5.135-4.877s4.246-1.74,6.682-1.74
			c4.812,0,8.594,1.676,11.344,5.027s4.125,8.551,4.125,15.598v26.727H313.61V75.44c0-3.552-0.537-6.001-1.611-7.348
			c-1.074-1.346-2.715-2.02-4.92-2.02c-1.404,0-2.621,0.208-3.652,0.623c-1.031,0.416-1.891,0.996-2.578,1.74v33.816h-14.523V35.222
			h14.523V61.519z"/>
		<path fill="#469CD1" d="M355.677,103.155c-6.847,0-12.311-2.148-16.393-6.445s-6.123-9.682-6.123-16.156v-1.633
			c0-7.075,1.854-12.854,5.564-17.338c3.709-4.482,9.016-6.71,15.92-6.682c6.302,0,11.243,1.891,14.824,5.672
			c3.58,3.781,5.371,8.909,5.371,15.383v7.605h-26.555l-0.086,0.258c0.314,2.378,1.289,4.333,2.922,5.865
			c1.633,1.533,3.81,2.299,6.531,2.299c2.75,0,4.948-0.215,6.596-0.645c1.646-0.43,3.73-1.174,6.252-2.234l3.438,8.852
			c-2.034,1.49-4.662,2.729-7.885,3.717S359.373,103.155,355.677,103.155z M354.646,66.073c-2.092,0-3.66,0.745-4.705,2.234
			c-1.046,1.49-1.684,3.48-1.912,5.973l0.129,0.215h12.504v-1.117c0-2.349-0.487-4.153-1.461-5.414
			C358.226,66.704,356.708,66.073,354.646,66.073z"/>
		<path fill="#469CD1" d="M405.48,68.565l-5.285-0.043c-1.662,0-3.022,0.279-4.082,0.838c-1.061,0.559-1.848,1.354-2.363,2.385
			v30.508h-14.523V55.761h13.664l0.516,6.832c0.974-2.435,2.263-4.325,3.867-5.672c1.604-1.346,3.48-2.02,5.629-2.02
			c0.688,0,1.389,0.051,2.105,0.15c0.716,0.101,1.346,0.223,1.891,0.365L405.48,68.565z"/>
	</g>
</g>
<g id="hilfslinien">
</g>
</svg>
