<?xml version="1.0" encoding="utf-8"?>
<!-- Generator: Adobe Illustrator 16.0.4, SVG Export Plug-In . SVG Version: 6.00 Build 0)  -->
<!DOCTYPE svg PUBLIC "-//W3C//DTD SVG 1.1//EN" "http://www.w3.org/Graphics/SVG/1.1/DTD/svg11.dtd">
<svg version="1.1" xmlns="http://www.w3.org/2000/svg" xmlns:xlink="http://www.w3.org/1999/xlink" x="0px" y="0px"
	 width="426.894px" height="81.805px" viewBox="0 0 426.894 81.805" enable-background="new 0 0 426.894 81.805"
	 xml:space="preserve">
<g id="text">
</g>
<g id="podlove_logo">
	<g>
		<path d="M48.403,64.004H10.601v9.001c0,4.8,0,4.5,0,8.8H0V25.802c0-4.801,0-4.4,0-8.801h48.403c10.8,0,14.801,6,14.801,14.601
			v17.802C63.204,58.004,59.203,64.004,48.403,64.004z M52.603,29.802c0-2.601-1-3.601-3.3-3.601H13.9c-2.3,0-3.3,1-3.3,3.601
			v21.401c0,2.601,1,3.601,3.3,3.601h35.402c2.3,0,3.3-1,3.3-3.601V29.802z"/>
		<path d="M120.002,64.004H83.199c-10.601,0-13.601-4.4-13.601-14.201V31.202c0-9.801,3-14.201,13.601-14.201h36.803
			c10.601,0,13.601,4.4,13.601,14.201v18.601C133.603,59.604,130.603,64.004,120.002,64.004z M123.002,30.002
			c0-2.7-0.8-3.801-3.6-3.801H83.6c-2.6,0-3.4,1.101-3.4,3.801v21.001c0,2.7,0.8,3.801,3.4,3.801h35.802c2.8,0,3.6-1.101,3.6-3.801
			V30.002z"/>
		<path d="M154.798,64.004c-11.201,0-14.801-5.601-14.801-14.601V31.602c0-9.4,3.7-14.601,14.801-14.601h37.802
			c0,0,0-14.101,0-17.001h10.601v55.203c0,4.801,0,5.501,0,8.801H154.798z M192.601,29.802c0-2.601-1-3.601-3.3-3.601h-35.402
			c-2.3,0-3.3,1-3.3,3.601v21.401c0,2.601,1,3.601,3.3,3.601h35.402c2.3,0,3.3-1,3.3-3.601V29.802z"/>
		<path d="M211.097,64.004V0h10.601v64.004H211.097z"/>
		<path d="M279.8,64.004h-36.803c-10.601,0-13.601-4.4-13.601-14.201V31.202c0-9.801,3-14.201,13.601-14.201H279.8
			c10.601,0,13.601,4.4,13.601,14.201v18.601C293.4,59.604,290.4,64.004,279.8,64.004z M282.8,30.002c0-2.7-0.8-3.801-3.601-3.801
			h-35.802c-2.601,0-3.4,1.101-3.4,3.801v21.001c0,2.7,0.8,3.801,3.4,3.801h35.802c2.801,0,3.601-1.101,3.601-3.801V30.002z"/>
		<path d="M334.795,64.004h-0.3h-11.801h-0.3l-28.802-47.003h12.101l22.901,37.402l22.901-37.402h12.101L334.795,64.004z"/>
		<path d="M374.391,45.603v4.4c0,3.4,1.601,4.801,5.4,4.801h38.002v9.2h-40.402c-10.601,0-13.601-4.3-13.601-14.201V31.202
			c0-9.801,2.4-14.201,13.601-14.201h35.902c11.201,0,13.601,3.9,13.601,14.201v14.4H374.391z M416.894,30.002
			c0-2.7-0.801-3.801-3.4-3.801h-35.702c-2.601,0-3.4,1.101-3.4,3.801v6.4h42.503V30.002z"/>
	</g>
</g>
<g id="hilfslinien">
</g>
</svg>
