<?xml version="1.0" encoding="utf-8"?>
<!-- Generator: Adobe Illustrator 16.0.4, SVG Export Plug-In . SVG Version: 6.00 Build 0)  -->
<!DOCTYPE svg PUBLIC "-//W3C//DTD SVG 1.1//EN" "http://www.w3.org/Graphics/SVG/1.1/DTD/svg11.dtd">
<svg version="1.1" xmlns="http://www.w3.org/2000/svg" xmlns:xlink="http://www.w3.org/1999/xlink" x="0px" y="0px"
	 width="797.718px" height="137.609px" viewBox="0 0 797.718 137.609" enable-background="new 0 0 797.718 137.609"
	 xml:space="preserve">
<g id="text">
</g>
<g id="podlove_logo">
	<g>
		<path d="M19.357,43.077H4.239v3.6c0,1.92,0,1.8,0,3.52H0V27.8c0-1.92,0-1.76,0-3.52h19.357c4.319,0,5.919,2.399,5.919,5.839v7.119
			C25.276,40.678,23.676,43.077,19.357,43.077z M21.037,29.399c0-1.04-0.4-1.439-1.32-1.439H5.559c-0.92,0-1.32,0.399-1.32,1.439
			v8.559c0,1.04,0.4,1.439,1.32,1.439h14.158c0.92,0,1.32-0.399,1.32-1.439V29.399z"/>
		<path d="M47.997,43.077H33.279c-4.239,0-5.439-1.76-5.439-5.679v-7.439c0-3.919,1.2-5.679,5.439-5.679h14.718
			c4.239,0,5.439,1.76,5.439,5.679v7.439C53.436,41.317,52.236,43.077,47.997,43.077z M49.196,29.479c0-1.08-0.32-1.52-1.44-1.52
			H33.439c-1.04,0-1.36,0.439-1.36,1.52v8.398c0,1.08,0.32,1.52,1.36,1.52h14.317c1.12,0,1.44-0.439,1.44-1.52V29.479z"/>
		<path d="M61.918,43.077c-4.479,0-5.919-2.239-5.919-5.839v-7.119c0-3.759,1.48-5.839,5.919-5.839h15.118c0,0,0-5.639,0-6.799
			h4.239v22.076c0,1.92,0,2.2,0,3.52H61.918z M77.036,29.399c0-1.04-0.4-1.439-1.32-1.439H61.559c-0.92,0-1.32,0.399-1.32,1.439
			v8.559c0,1.04,0.4,1.439,1.32,1.439h14.158c0.92,0,1.32-0.399,1.32-1.439V29.399z"/>
		<path d="M84.439,43.077V17.481h4.239v25.596H84.439z"/>
		<path d="M111.916,43.077H97.198c-4.239,0-5.439-1.76-5.439-5.679v-7.439c0-3.919,1.2-5.679,5.439-5.679h14.718
			c4.239,0,5.438,1.76,5.438,5.679v7.439C117.354,41.317,116.155,43.077,111.916,43.077z M113.115,29.479
			c0-1.08-0.319-1.52-1.439-1.52H97.358c-1.04,0-1.359,0.439-1.359,1.52v8.398c0,1.08,0.319,1.52,1.359,1.52h14.317
			c1.12,0,1.439-0.439,1.439-1.52V29.479z"/>
		<path d="M133.915,43.077h-0.12h-4.719h-0.12L117.437,24.28h4.84l9.158,14.958l9.158-14.958h4.84L133.915,43.077z"/>
		<path d="M149.755,35.719v1.76c0,1.359,0.64,1.919,2.159,1.919h15.197v3.68h-16.157c-4.239,0-5.438-1.72-5.438-5.679v-7.439
			c0-3.919,0.959-5.679,5.438-5.679h14.357c4.479,0,5.439,1.56,5.439,5.679v5.76H149.755z M166.752,29.479
			c0-1.08-0.32-1.52-1.36-1.52h-14.277c-1.04,0-1.359,0.439-1.359,1.52v2.56h16.997V29.479z"/>
	</g>
	<g>
		<path fill="#181716" d="M49.075,93.738v25.996h-5.113V57.172h21.527c6.56,0,11.637,1.669,15.232,5.006
			c3.595,3.338,5.393,7.756,5.393,13.256c0,5.558-1.798,9.998-5.393,13.32c-3.595,3.323-8.673,4.984-15.232,4.984H49.075z
			 M49.075,89.355h16.414c5.156,0,9.03-1.311,11.623-3.932C79.704,82.803,81,79.502,81,75.52c0-4.01-1.289-7.34-3.867-9.99
			c-2.578-2.649-6.46-3.975-11.645-3.975H49.075V89.355z"/>
		<path fill="#181716" d="M85.218,95.801c0-6.846,1.876-12.461,5.629-16.844c3.752-4.383,8.723-6.574,14.91-6.574
			c6.216,0,11.2,2.191,14.953,6.574c3.752,4.383,5.629,9.998,5.629,16.844v1.418c0,6.875-1.869,12.497-5.607,16.865
			c-3.738,4.369-8.701,6.553-14.889,6.553c-6.245,0-11.244-2.184-14.996-6.553c-3.753-4.368-5.629-9.99-5.629-16.865V95.801z
			 M90.374,97.196c0,5.38,1.36,9.901,4.082,13.563c2.721,3.663,6.517,5.494,11.387,5.494c4.784,0,8.543-1.831,11.279-5.494
			c2.735-3.662,4.104-8.184,4.104-13.563V95.78c0-5.294-1.375-9.786-4.125-13.478s-6.531-5.537-11.344-5.537
			s-8.58,1.846-11.301,5.537c-2.722,3.691-4.082,8.184-4.082,13.478V97.196z"/>
		<path fill="#181716" d="M130.222,96.875c0-7.419,1.568-13.355,4.705-17.811c3.137-4.454,7.512-6.682,13.127-6.682
			c3.237,0,6.044,0.688,8.422,2.062c2.377,1.375,4.354,3.323,5.93,5.844V52.703h5.113v67.031h-4.555l-0.43-6.746
			c-1.547,2.464-3.538,4.354-5.973,5.672c-2.435,1.317-5.3,1.977-8.594,1.977c-5.558,0-9.904-2.069-13.041-6.209
			c-3.137-4.139-4.705-9.689-4.705-16.65V96.875z M135.378,97.783c0,5.639,1.124,10.127,3.373,13.465
			c2.249,3.338,5.636,5.006,10.162,5.006c3.323,0,6.094-0.748,8.314-2.244c2.22-1.495,3.946-3.567,5.178-6.215V85.871
			c-1.175-2.703-2.836-4.897-4.984-6.58c-2.148-1.684-4.956-2.525-8.422-2.525c-4.526,0-7.928,1.863-10.205,5.589
			s-3.416,8.566-3.416,14.521V97.783z"/>
		<path fill="#181716" d="M191.856,116.254c3.409,0,6.417-0.97,9.023-2.91c2.606-1.94,3.91-4.637,3.91-8.09h4.555l0.086,0.258
			c0.143,4.297-1.576,7.893-5.156,10.785c-3.581,2.894-7.72,4.34-12.418,4.34c-6.331,0-11.222-2.17-14.674-6.51
			c-3.452-4.34-5.178-9.918-5.178-16.736v-1.805c0-6.76,1.733-12.317,5.199-16.672c3.466-4.354,8.336-6.531,14.609-6.531
			c5.099,0,9.346,1.504,12.74,4.512s5.034,6.961,4.92,11.859l-0.086,0.258h-4.598c0-3.724-1.253-6.695-3.76-8.916
			c-2.507-2.22-5.579-3.33-9.217-3.33c-4.984,0-8.673,1.781-11.064,5.344c-2.392,3.562-3.588,8.049-3.588,13.456v1.803
			c0,5.494,1.188,10.016,3.566,13.563C183.104,114.48,186.814,116.254,191.856,116.254z"/>
		<path fill="#181716" d="M244.809,119.734c-0.344-1.575-0.587-2.936-0.73-4.082c-0.144-1.146-0.215-2.306-0.215-3.48
			c-1.719,2.436-4.011,4.455-6.875,6.059c-2.865,1.604-6.087,2.406-9.668,2.406c-4.526,0-8.042-1.203-10.549-3.609
			c-2.507-2.406-3.76-5.629-3.76-9.668c0-4.297,1.854-7.734,5.564-10.312c3.709-2.578,8.715-3.867,15.018-3.867h10.27v-5.758
			c0-3.322-1.067-5.93-3.201-7.82c-2.134-1.891-5.121-2.836-8.959-2.836c-3.581,0-6.553,0.902-8.916,2.707s-3.545,4.011-3.545,6.617
			l-4.727-0.043l-0.086-0.258c-0.172-3.466,1.411-6.566,4.748-9.303c3.337-2.735,7.584-4.104,12.74-4.104
			c5.127,0,9.252,1.304,12.375,3.91c3.122,2.607,4.684,6.346,4.684,11.215v22.859c0,1.633,0.093,3.223,0.279,4.77
			c0.186,1.547,0.494,3.08,0.924,4.598H244.809z M227.922,116.082c3.695,0,6.961-0.866,9.797-2.6
			c2.836-1.732,4.884-3.945,6.145-6.639v-9.711h-10.355c-4.669,0-8.4,0.996-11.193,2.986c-2.793,1.991-4.189,4.462-4.189,7.412
			c0,2.521,0.866,4.576,2.6,6.166C222.458,115.287,224.857,116.082,227.922,116.082z"/>
		<path fill="#181716" d="M282.168,107.896c0-2.172-0.896-4.073-2.686-5.702c-1.791-1.629-5.021-2.957-9.689-3.986
			c-5.558-1.203-9.661-2.793-12.311-4.77c-2.65-1.977-3.975-4.77-3.975-8.379c0-3.552,1.497-6.553,4.49-9.002
			c2.993-2.449,6.954-3.674,11.881-3.674c5.242,0,9.396,1.297,12.461,3.889c3.065,2.593,4.526,5.837,4.383,9.732l-0.086,0.258h-4.77
			c0-2.549-1.082-4.77-3.244-6.66c-2.163-1.891-5.078-2.836-8.744-2.836c-3.753,0-6.567,0.806-8.443,2.416
			c-1.876,1.61-2.814,3.498-2.814,5.664c0,2.138,0.809,3.905,2.428,5.302c1.618,1.396,4.848,2.623,9.689,3.677
			c5.528,1.236,9.668,2.925,12.418,5.065c2.75,2.142,4.125,5.051,4.125,8.729c0,3.88-1.568,7.02-4.705,9.419s-7.283,3.6-12.439,3.6
			c-5.644,0-10.076-1.346-13.299-4.039c-3.223-2.692-4.748-5.9-4.576-9.625l0.086-0.258h4.727c0.2,3.337,1.568,5.761,4.104,7.271
			c2.535,1.513,5.521,2.268,8.959,2.268c3.724,0,6.66-0.814,8.809-2.443S282.168,110.21,282.168,107.896z"/>
		<path fill="#181716" d="M302.378,61.34v11.902h10.227v4.211h-10.227v30.293c0,3.037,0.551,5.192,1.654,6.467
			c1.103,1.275,2.571,1.912,4.404,1.912c0.831,0,1.64-0.035,2.428-0.107c0.788-0.071,1.697-0.193,2.729-0.365l0.773,3.824
			c-0.859,0.372-1.905,0.658-3.137,0.859c-1.232,0.2-2.464,0.301-3.695,0.301c-3.266,0-5.808-1.031-7.627-3.094
			c-1.819-2.062-2.729-5.328-2.729-9.797V77.453h-8.035v-4.211h8.035V61.34H302.378z"/>
		<path fill="#181716" d="M334.365,120.637c-5.815,0-10.649-2.148-14.502-6.445c-3.853-4.297-5.779-9.739-5.779-16.328V95.5
			c0-6.646,1.912-12.16,5.736-16.543s8.458-6.574,13.9-6.574c5.7,0,10.184,1.805,13.449,5.414s4.898,8.422,4.898,14.438v4.383
			H319.24v1.243c0,5.231,1.389,9.604,4.168,13.12c2.778,3.516,6.431,5.273,10.957,5.273c3.208,0,5.944-0.443,8.207-1.332
			c2.263-0.888,4.196-2.162,5.801-3.824l2.191,3.523c-1.748,1.841-3.96,3.303-6.639,4.389
			C341.247,120.094,338.06,120.637,334.365,120.637z M333.72,76.766c-3.81,0-7.004,1.45-9.582,4.35s-4.082,6.534-4.512,10.904
			l0.086,0.215h27.242v-1.285c0-4.028-1.189-7.399-3.566-10.113C341.01,78.123,337.788,76.766,333.72,76.766z"/>
		<path fill="#181716" d="M378.81,77.668l-3.824-0.258c-3.237,0-5.894,0.91-7.971,2.729c-2.077,1.819-3.56,4.318-4.447,7.498v32.098
			h-5.156V73.242h4.512l0.645,7.734v0.516c1.346-2.864,3.151-5.099,5.414-6.703c2.263-1.604,4.956-2.406,8.078-2.406
			c0.659,0,1.296,0.051,1.912,0.15c0.616,0.101,1.124,0.208,1.525,0.322L378.81,77.668z"/>
		<path fill="#7EB51F" d="M445.026,98.207h0.258l8.207-41.035h14.051l-14.352,62.562h-13.664l-10.527-38.586h-0.258l-10.441,38.586
			h-13.664l-14.395-62.562h14.094l8.207,41.035h0.258l11.043-41.035h10.098L445.026,98.207z"/>
		<path fill="#7EB51F" d="M466.191,96.059c0-6.989,1.977-12.683,5.93-17.08c3.953-4.396,9.467-6.596,16.543-6.596
			c7.104,0,12.633,2.199,16.586,6.596c3.953,4.397,5.93,10.091,5.93,17.08v0.902c0,7.019-1.977,12.719-5.93,17.102
			s-9.453,6.574-16.5,6.574c-7.133,0-12.676-2.191-16.629-6.574s-5.93-10.083-5.93-17.102V96.059z M480.714,96.961
			c0,3.896,0.607,6.954,1.826,9.174c1.217,2.221,3.287,3.33,6.209,3.33c2.836,0,4.869-1.117,6.102-3.352
			c1.23-2.234,1.848-5.285,1.848-9.152v-0.902c0-3.781-0.617-6.811-1.848-9.088c-1.232-2.277-3.295-3.416-6.188-3.416
			c-2.865,0-4.906,1.146-6.123,3.438c-1.219,2.292-1.826,5.314-1.826,9.066V96.961z"/>
		<path fill="#7EB51F" d="M541.195,86.047l-5.285-0.043c-1.661,0-3.021,0.279-4.082,0.838c-1.06,0.559-1.848,1.354-2.363,2.385
			v30.508h-14.523V73.242h13.664l0.516,6.832c0.975-2.435,2.264-4.325,3.867-5.672c1.604-1.346,3.48-2.02,5.629-2.02
			c0.688,0,1.39,0.051,2.105,0.15c0.717,0.101,1.347,0.223,1.891,0.365L541.195,86.047z"/>
		<path fill="#7EB51F" d="M561.801,101.258h-2.449v18.477h-14.523V52.703h14.523v37.598h1.934l9.926-17.059h16.629l-14.438,21.012
			l16.715,25.48h-16.543L561.801,101.258z"/>
		<path fill="#7EB51F" d="M614.505,106.672c0-1.146-0.652-2.17-1.955-3.072c-1.305-0.902-3.674-1.711-7.111-2.428
			c-5.414-1.06-9.496-2.707-12.246-4.941s-4.125-5.285-4.125-9.152c0-4.096,1.719-7.569,5.156-10.42
			c3.438-2.85,8.092-4.275,13.965-4.275c6.188,0,11.113,1.383,14.781,4.146c3.666,2.765,5.414,6.338,5.242,10.721l-0.086,0.258
			h-14.094c0-1.833-0.467-3.223-1.396-4.168c-0.932-0.945-2.428-1.418-4.49-1.418c-1.52,0-2.793,0.416-3.824,1.246
			c-1.031,0.831-1.547,1.891-1.547,3.18c0,1.232,0.594,2.277,1.783,3.137c1.188,0.859,3.588,1.633,7.197,2.32
			c5.672,1.117,9.875,2.786,12.611,5.006c2.734,2.221,4.104,5.364,4.104,9.432c0,4.183-1.855,7.627-5.564,10.334
			c-3.711,2.707-8.615,4.061-14.717,4.061c-6.332,0-11.338-1.604-15.018-4.812c-3.682-3.208-5.436-6.789-5.264-10.742l0.086-0.258
			h13.148c0.057,2.206,0.723,3.796,1.998,4.77c1.273,0.975,3.086,1.461,5.436,1.461c1.947,0,3.422-0.379,4.426-1.139
			C614.003,109.157,614.505,108.076,614.505,106.672z"/>
		<path fill="#7EB51F" d="M646.755,79c1.403-2.091,3.115-3.717,5.135-4.877s4.246-1.74,6.682-1.74c4.812,0,8.594,1.676,11.344,5.027
			s4.125,8.551,4.125,15.598v26.727h-14.523V92.922c0-3.552-0.537-6.001-1.611-7.348c-1.074-1.346-2.715-2.02-4.92-2.02
			c-1.404,0-2.621,0.208-3.652,0.623c-1.031,0.416-1.891,0.996-2.578,1.74v33.816h-14.523V52.703h14.523V79z"/>
		<path fill="#7EB51F" d="M677.545,96.059c0-6.989,1.977-12.683,5.93-17.08c3.953-4.396,9.467-6.596,16.543-6.596
			c7.104,0,12.633,2.199,16.586,6.596c3.953,4.397,5.93,10.091,5.93,17.08v0.902c0,7.019-1.977,12.719-5.93,17.102
			s-9.453,6.574-16.5,6.574c-7.133,0-12.676-2.191-16.629-6.574s-5.93-10.083-5.93-17.102V96.059z M692.069,96.961
			c0,3.896,0.608,6.954,1.826,9.174c1.217,2.221,3.287,3.33,6.209,3.33c2.836,0,4.869-1.117,6.102-3.352
			c1.231-2.234,1.848-5.285,1.848-9.152v-0.902c0-3.781-0.616-6.811-1.848-9.088c-1.232-2.277-3.295-3.416-6.188-3.416
			c-2.865,0-4.906,1.146-6.123,3.438c-1.218,2.292-1.826,5.314-1.826,9.066V96.961z"/>
		<path fill="#7EB51F" d="M769.35,97.477c0,6.99-1.576,12.598-4.727,16.822c-3.151,4.226-7.592,6.338-13.32,6.338
			c-2.234,0-4.219-0.43-5.951-1.289c-1.733-0.859-3.244-2.105-4.533-3.738v22h-14.523V73.242h13.578l0.516,5.113
			c1.317-1.919,2.864-3.395,4.641-4.426c1.775-1.031,3.838-1.547,6.188-1.547c5.758,0,10.219,2.221,13.385,6.66
			c3.165,4.44,4.748,10.284,4.748,17.531V97.477z M754.87,96.574c0-3.924-0.573-7.075-1.719-9.453
			c-1.146-2.377-2.979-3.566-5.5-3.566c-1.633,0-3.016,0.301-4.146,0.902c-1.132,0.602-2.027,1.476-2.686,2.621V106.5
			c0.688,1.003,1.597,1.748,2.729,2.234c1.131,0.487,2.527,0.73,4.189,0.73c2.549,0,4.375-1.053,5.479-3.158
			c1.103-2.105,1.654-5.049,1.654-8.83V96.574z"/>
	</g>
	<g>
		<circle fill-rule="evenodd" clip-rule="evenodd" cx="767.218" cy="30.5" r="30.5"/>
		<g>
			<path fill="#FFFFFF" d="M753.006,43.151h-2V20.851l-6.167,0.717v-1.4l8.167-1.467V43.151z"/>
			<path fill="#FFFFFF" d="M756.435,32.051l1.35-13.284h11.783v1.851h-10.084l-0.899,8.65c0.61-0.556,1.284-0.983,2.017-1.283
				c0.733-0.3,1.729-0.467,2.984-0.5c2.066-0.033,3.732,0.661,5,2.083c1.267,1.423,1.9,3.334,1.9,5.734
				c0,2.455-0.615,4.417-1.842,5.883c-1.229,1.467-3.076,2.2-5.543,2.2c-2,0-3.666-0.558-5-1.675
				c-1.334-1.116-1.973-2.77-1.916-4.959l0.033-0.1h1.783c0,1.628,0.463,2.874,1.392,3.738c0.928,0.863,2.163,1.296,3.708,1.296
				c1.801,0,3.148-0.544,4.043-1.632c0.894-1.087,1.342-2.663,1.342-4.728c0-1.809-0.448-3.259-1.342-4.353
				c-0.895-1.093-2.148-1.64-3.76-1.64c-1.555,0-2.741,0.248-3.559,0.742c-0.816,0.494-1.408,1.241-1.774,2.241L756.435,32.051z"/>
			<path fill="#FFFFFF" d="M787.493,34.518c0,2.7-0.611,4.854-1.833,6.459c-1.223,1.606-2.906,2.408-5.051,2.408
				c-1.322,0-2.461-0.264-3.417-0.791c-0.956-0.528-1.728-1.286-2.317-2.275l-0.217,2.717h-1.717V17.033h2.001v10.801
				c0.6-1.011,1.366-1.792,2.3-2.342s2.045-0.825,3.334-0.825c2.166,0,3.861,0.864,5.084,2.592c1.222,1.729,1.833,4.031,1.833,6.909
				V34.518z M785.476,34.168c0-2.31-0.445-4.188-1.334-5.633s-2.205-2.168-3.95-2.168c-1.39,0-2.509,0.347-3.358,1.038
				c-0.85,0.692-1.48,1.579-1.892,2.662v8.186c0.444,1.05,1.108,1.884,1.991,2.503c0.884,0.619,1.98,0.93,3.293,0.93
				c1.744,0,3.055-0.647,3.934-1.942c0.877-1.295,1.316-3.035,1.316-5.224V34.168z"/>
		</g>
	</g>
</g>
<g id="hilfslinien">
</g>
</svg>
