<svg width="695" height="120" viewBox="0 0 695 120" xmlns="http://www.w3.org/2000/svg"><title>Slice 1</title><g fill="none" fill-rule="evenodd"><g fill="#000"><path d="M20.357 25.596H5.24v7.12H1V6.798h19.357c4.32 0 5.92 2.4 5.92 5.84v7.118c0 3.44-1.6 5.84-5.92 5.84zm1.68-13.678c0-1.04-.4-1.44-1.32-1.44H6.56c-.92 0-1.32.4-1.32 1.44v8.56c0 1.04.4 1.438 1.32 1.438h14.157c.92 0 1.32-.4 1.32-1.44V11.92zM48.997 25.596H34.28c-4.24 0-5.44-1.76-5.44-5.68V12.48c0-3.92 1.2-5.68 5.44-5.68h14.717c4.24 0 5.44 1.76 5.44 5.68v7.44c0 3.918-1.2 5.678-5.44 5.678zm1.2-13.598c0-1.08-.32-1.52-1.44-1.52H34.438c-1.04 0-1.36.44-1.36 1.52v8.398c0 1.08.32 1.52 1.36 1.52h14.316c1.12 0 1.44-.44 1.44-1.52v-8.398zM62.918 25.596c-4.48 0-5.92-2.24-5.92-5.84V12.64c0-3.76 1.48-5.84 5.92-5.84h15.118V0h4.24v25.596H62.917zm15.118-13.678c0-1.04-.4-1.44-1.32-1.44H62.56c-.92 0-1.32.4-1.32 1.44v8.56c0 1.04.4 1.438 1.32 1.438h14.157c.92 0 1.32-.4 1.32-1.44V11.92zM85.44 25.596V0h4.238v25.596h-4.24zM112.916 25.596H98.198c-4.24 0-5.44-1.76-5.44-5.68V12.48c0-3.92 1.2-5.68 5.44-5.68h14.718c4.24 0 5.438 1.76 5.438 5.68v7.44c0 3.918-1.2 5.678-5.438 5.678zm1.2-13.598c0-1.08-.32-1.52-1.44-1.52H98.358c-1.04 0-1.36.44-1.36 1.52v8.398c0 1.08.32 1.52 1.36 1.52h14.317c1.12 0 1.44-.44 1.44-1.52v-8.398zM134.915 25.596h-4.96L118.438 6.8h4.84l9.158 14.957L141.593 6.8h4.84l-11.518 18.796zM150.755 18.237v1.76c0 1.36.64 1.92 2.16 1.92h15.196v3.68h-16.156c-4.24 0-5.438-1.72-5.438-5.68v-7.44c0-3.918.96-5.678 5.438-5.678h14.357c4.48 0 5.44 1.56 5.44 5.678v5.76h-20.995zm16.997-6.24c0-1.08-.32-1.52-1.36-1.52h-14.277c-1.04 0-1.36.44-1.36 1.52v2.56h16.998v-2.56z"/></g><g fill="#61B66D"><path d="M87.575 85.667c0-2.205-.73-3.91-2.19-5.113-1.462-1.203-4.083-2.478-7.864-3.824-7.905-2.492-13.764-5.163-17.573-8.014-3.81-2.85-5.715-6.968-5.715-12.354 0-5.242 2.27-9.48 6.81-12.72 4.54-3.235 10.306-4.854 17.296-4.854 6.932 0 12.61 1.783 17.037 5.35 4.426 3.567 6.566 8.157 6.424 13.77l-.087.26H87.618c0-2.493-.846-4.52-2.535-6.08-1.69-1.562-4.025-2.343-7.004-2.343-2.923 0-5.215.645-6.876 1.934-1.662 1.288-2.492 2.878-2.492 4.77 0 1.833.838 3.3 2.514 4.403 1.676 1.104 4.82 2.485 9.432 4.146 7.104 2.12 12.453 4.726 16.05 7.82 3.594 3.093 5.392 7.347 5.392 12.76 0 5.5-2.142 9.806-6.424 12.913-4.283 3.108-9.962 4.662-17.037 4.662-7.105 0-13.25-1.783-18.435-5.35-5.186-3.566-7.706-8.7-7.562-15.404l.086-.257h14.136c0 3.61.974 6.188 2.922 7.734 1.947 1.547 4.898 2.32 8.852 2.32 3.008 0 5.25-.602 6.725-1.805 1.472-1.202 2.21-2.777 2.21-4.725zM133.513 96.753c-1.49 2.062-3.316 3.646-5.48 4.748-2.162 1.104-4.604 1.655-7.325 1.655-4.812 0-8.587-1.547-11.322-4.64-2.736-3.095-4.104-7.893-4.104-14.396V55.76h14.48v28.446c0 2.607.494 4.555 1.482 5.844.988 1.29 2.398 1.934 4.232 1.934 1.547 0 2.907-.215 4.082-.645a7.892 7.892 0 0 0 3.008-1.935V55.76h14.523v46.493h-12.677l-.9-5.5zM196.377 79.995c0 7.076-1.52 12.705-4.555 16.887-3.037 4.183-7.534 6.273-13.492 6.273-2.55 0-4.77-.552-6.66-1.654-1.89-1.1-3.495-2.685-4.812-4.747l-.945 5.5h-12.59v-67.03h14.523v25.05c1.29-1.72 2.785-3.043 4.49-3.975 1.704-.93 3.674-1.396 5.908-1.396 5.986 0 10.506 2.19 13.557 6.574 3.052 4.383 4.577 10.256 4.577 17.617v.902zm-14.48-.902c0-4.125-.517-7.326-1.548-9.604-1.032-2.28-2.952-3.417-5.76-3.417-1.575 0-2.93.294-4.06.88a6.59 6.59 0 0 0-2.686 2.558v19.51a6.238 6.238 0 0 0 2.707 2.233c1.118.487 2.493.73 4.126.73 2.864 0 4.783-.995 5.758-2.986.974-1.99 1.46-4.99 1.46-9.002v-.902h.002zM225.254 89.19c0-1.146-.652-2.17-1.955-3.072-1.305-.902-3.675-1.71-7.112-2.428-5.414-1.06-9.496-2.707-12.246-4.94-2.75-2.235-4.125-5.286-4.125-9.153 0-4.096 1.72-7.57 5.156-10.42 3.438-2.85 8.092-4.275 13.965-4.275 6.188 0 11.114 1.383 14.78 4.146 3.667 2.765 5.415 6.338 5.243 10.72l-.085.26H224.78c0-1.834-.465-3.224-1.395-4.17-.932-.944-2.428-1.417-4.49-1.417-1.52 0-2.793.417-3.824 1.247-1.03.83-1.546 1.89-1.546 3.18 0 1.232.594 2.277 1.783 3.137 1.188.86 3.588 1.633 7.197 2.32 5.672 1.117 9.875 2.786 12.61 5.006 2.736 2.22 4.105 5.364 4.105 9.432 0 4.183-1.856 7.627-5.565 10.334-3.71 2.707-8.615 4.06-14.717 4.06-6.33 0-11.337-1.603-15.018-4.81-3.682-3.21-5.436-6.79-5.264-10.743l.086-.258h13.148c.057 2.206.723 3.796 1.998 4.77 1.274.975 3.086 1.46 5.436 1.46 1.947 0 3.423-.378 4.426-1.138 1.002-.76 1.504-1.842 1.504-3.247zM264.143 91.983c1.947 0 3.395-.53 4.34-1.59.945-1.06 1.418-2.62 1.418-4.684h13.278l.086.257c.114 5.07-1.64 9.203-5.264 12.396-3.624 3.194-8.243 4.79-13.857 4.79-7.047 0-12.482-2.19-16.307-6.573-3.825-4.383-5.736-10.067-5.736-17.058v-.988c0-6.96 1.904-12.64 5.715-17.037 3.81-4.396 9.21-6.596 16.2-6.596 5.9 0 10.612 1.648 14.136 4.942 3.524 3.295 5.23 7.777 5.114 13.45l-.086.257H269.9c0-2.206-.487-4.004-1.46-5.394-.976-1.39-2.45-2.084-4.427-2.084-2.75 0-4.677 1.132-5.78 3.395-1.103 2.264-1.653 5.285-1.653 9.066v.988c0 3.897.55 6.948 1.654 9.153 1.103 2.208 3.073 3.31 5.91 3.31zM313.73 68.565l-5.285-.043c-1.662 0-3.022.28-4.082.838-1.06.56-1.848 1.354-2.363 2.385v30.508h-14.523V55.76h13.664l.517 6.833c.974-2.435 2.263-4.325 3.867-5.672 1.604-1.345 3.48-2.02 5.63-2.02.687 0 1.388.052 2.104.15.716.102 1.346.224 1.89.366l-1.418 13.15zM333.454 44.976h-14.566v-9.754h14.566v9.754zm0 57.277h-14.566V55.76h14.566v46.493zM381.884 79.995c0 7.076-1.52 12.705-4.555 16.887-3.038 4.183-7.535 6.273-13.493 6.273-2.55 0-4.77-.552-6.66-1.654-1.89-1.1-3.495-2.685-4.812-4.747l-.945 5.5h-12.59v-67.03h14.523v25.05c1.29-1.72 2.785-3.043 4.49-3.975 1.704-.93 3.674-1.396 5.908-1.396 5.987 0 10.507 2.19 13.558 6.574 3.05 4.383 4.576 10.256 4.576 17.617v.902zm-14.48-.902c0-4.125-.517-7.326-1.548-9.604-1.03-2.28-2.95-3.417-5.758-3.417-1.576 0-2.93.294-4.06.88a6.59 6.59 0 0 0-2.687 2.558v19.51a6.238 6.238 0 0 0 2.708 2.233c1.117.487 2.492.73 4.125.73 2.864 0 4.783-.995 5.758-2.986.975-1.99 1.462-4.99 1.462-9.002v-.902zM407.753 103.155c-6.847 0-12.31-2.148-16.393-6.445-4.082-4.297-6.123-9.682-6.123-16.156V78.92c0-7.074 1.854-12.853 5.564-17.337 3.71-4.482 9.017-6.71 15.92-6.682 6.303 0 11.244 1.892 14.825 5.673 3.58 3.78 5.37 8.91 5.37 15.383v7.605h-26.554l-.085.26c.314 2.377 1.29 4.332 2.922 5.864 1.633 1.533 3.81 2.3 6.53 2.3 2.75 0 4.95-.216 6.597-.646 1.646-.43 3.73-1.174 6.252-2.234l3.438 8.852c-2.034 1.49-4.662 2.73-7.885 3.717-3.224.988-6.682 1.482-10.377 1.482zm-1.03-37.082c-2.093 0-3.66.745-4.706 2.234-1.046 1.49-1.684 3.48-1.912 5.973l.13.215h12.503v-1.117c0-2.35-.487-4.153-1.46-5.414-.976-1.26-2.494-1.89-4.556-1.89zM445.188 102.253V39.69h21.484c7.763 0 13.82 1.44 18.176 4.318 4.354 2.88 6.53 7.17 6.53 12.87 0 2.978-.7 5.628-2.104 7.948-1.404 2.32-3.566 4.068-6.488 5.242 3.666.83 6.373 2.5 8.12 5.006 1.748 2.507 2.622 5.393 2.622 8.658 0 6.102-2.05 10.714-6.145 13.836-4.097 3.123-9.97 4.684-17.617 4.684h-24.578zm14.567-36.48h7.22c3.293-.058 5.757-.695 7.39-1.913 1.633-1.217 2.45-3 2.45-5.35 0-2.664-.832-4.604-2.493-5.822-1.662-1.217-4.21-1.826-7.648-1.826h-6.918v14.91zm0 9.624V91.08h10.012c3.094 0 5.414-.607 6.96-1.825 1.548-1.217 2.32-3.086 2.32-5.607 0-2.72-.665-4.776-1.997-6.166-1.332-1.39-3.488-2.084-6.467-2.084h-10.828zM525.286 96.753c-1.49 2.062-3.316 3.646-5.48 4.748-2.162 1.104-4.604 1.655-7.325 1.655-4.81 0-8.586-1.547-11.32-4.64-2.737-3.095-4.105-7.893-4.105-14.396V55.76h14.48v28.446c0 2.607.494 4.555 1.482 5.844.988 1.29 2.398 1.934 4.232 1.934 1.546 0 2.906-.215 4.08-.645a7.892 7.892 0 0 0 3.01-1.935V55.76h14.522v46.493h-12.676l-.9-5.5zM562.283 44.202v11.56h7.863v10.054h-7.863v21.312c0 1.662.336 2.857 1.01 3.588.673.73 1.582 1.096 2.73 1.096.915 0 1.64-.028 2.17-.086.528-.057 1.21-.172 2.04-.344l1.03 10.742c-1.603.372-3.05.637-4.34.795-1.288.156-2.807.235-4.554.235-4.785 0-8.41-1.274-10.872-3.824-2.464-2.548-3.695-6.587-3.695-12.116v-21.4h-6.53V55.762h6.53V44.203h14.48zM594.166 44.202v11.56h7.863v10.054h-7.864v21.312c0 1.662.336 2.857 1.01 3.588.673.73 1.582 1.096 2.73 1.096.915 0 1.64-.028 2.17-.086.528-.057 1.21-.172 2.04-.344l1.03 10.742c-1.603.372-3.05.637-4.34.795-1.288.156-2.807.235-4.554.235-4.784 0-8.408-1.274-10.87-3.824-2.465-2.548-3.696-6.587-3.696-12.116v-21.4h-6.53V55.762h6.53V44.203h14.48zM603.88 78.577c0-6.99 1.976-12.683 5.93-17.08 3.952-4.396 9.466-6.596 16.542-6.596 7.104 0 12.633 2.2 16.586 6.597 3.953 4.397 5.93 10.09 5.93 17.08v.902c0 7.018-1.977 12.718-5.93 17.1-3.953 4.384-9.453 6.575-16.5 6.575-7.133 0-12.676-2.19-16.63-6.574-3.952-4.382-5.93-10.082-5.93-17.1v-.903zm14.522.902c0 3.895.608 6.953 1.826 9.173 1.217 2.22 3.287 3.33 6.21 3.33 2.835 0 4.868-1.117 6.1-3.352 1.232-2.233 1.85-5.284 1.85-9.15v-.903c0-3.78-.617-6.81-1.85-9.088-1.23-2.278-3.294-3.417-6.187-3.417-2.864 0-4.905 1.146-6.122 3.438-1.218 2.293-1.826 5.315-1.826 9.067v.902zM665.113 55.76l.56 6.532c1.517-2.32 3.394-4.132 5.628-5.436 2.235-1.303 4.728-1.955 7.478-1.955 4.555 0 8.113 1.477 10.678 4.427 2.563 2.95 3.846 7.648 3.846 14.094v28.833H678.78V73.378c0-2.664-.553-4.547-1.655-5.65-1.104-1.103-2.73-1.654-4.877-1.654-1.347 0-2.543.244-3.588.73a7.95 7.95 0 0 0-2.686 2.02v33.43h-14.48V55.76h13.62z"/></g></g></svg>