<svg width="695" height="120" viewBox="0 0 695 120" xmlns="http://www.w3.org/2000/svg"><title>Slice 1</title><g fill="none" fill-rule="evenodd"><g fill="#000"><path d="M163.357 25.596H148.24v7.12H144V6.798h19.357c4.32 0 5.92 2.4 5.92 5.84v7.118c0 3.44-1.6 5.84-5.92 5.84zm1.68-13.678c0-1.04-.4-1.44-1.32-1.44H149.56c-.92 0-1.32.4-1.32 1.44v8.56c0 1.04.4 1.438 1.32 1.438h14.157c.92 0 1.32-.4 1.32-1.44V11.92zM191.997 25.596H177.28c-4.24 0-5.44-1.76-5.44-5.68V12.48c0-3.92 1.2-5.68 5.44-5.68h14.717c4.24 0 5.44 1.76 5.44 5.68v7.44c0 3.918-1.2 5.678-5.44 5.678zm1.2-13.598c0-1.08-.32-1.52-1.44-1.52h-14.318c-1.04 0-1.36.44-1.36 1.52v8.398c0 1.08.32 1.52 1.36 1.52h14.316c1.12 0 1.44-.44 1.44-1.52v-8.398zM205.918 25.596c-4.48 0-5.92-2.24-5.92-5.84V12.64c0-3.76 1.48-5.84 5.92-5.84h15.118V0h4.24v25.596h-19.358zm15.118-13.678c0-1.04-.4-1.44-1.32-1.44H205.56c-.92 0-1.32.4-1.32 1.44v8.56c0 1.04.4 1.438 1.32 1.438h14.157c.92 0 1.32-.4 1.32-1.44V11.92zM228.44 25.596V0h4.238v25.596h-4.24zM255.916 25.596h-14.718c-4.24 0-5.44-1.76-5.44-5.68V12.48c0-3.92 1.2-5.68 5.44-5.68h14.718c4.24 0 5.438 1.76 5.438 5.68v7.44c0 3.918-1.2 5.678-5.438 5.678zm1.2-13.598c0-1.08-.32-1.52-1.44-1.52h-14.318c-1.04 0-1.36.44-1.36 1.52v8.398c0 1.08.32 1.52 1.36 1.52h14.317c1.12 0 1.44-.44 1.44-1.52v-8.398zM277.915 25.596h-4.96L261.438 6.8h4.84l9.158 14.957L284.593 6.8h4.84l-11.518 18.796zM293.755 18.237v1.76c0 1.36.64 1.92 2.16 1.92h15.196v3.68h-16.156c-4.24 0-5.438-1.72-5.438-5.68v-7.44c0-3.918.96-5.678 5.438-5.678h14.357c4.48 0 5.44 1.56 5.44 5.678v5.76h-20.995zm16.997-6.24c0-1.08-.32-1.52-1.36-1.52h-14.277c-1.04 0-1.36.44-1.36 1.52v2.56h16.998v-2.56z"/></g><g fill="#469CD1"><path d="M206.747 80.812v21.44H192.18V39.69h25.396c7.42 0 13.306 1.898 17.66 5.693 4.354 3.796 6.53 8.76 6.53 14.89 0 6.158-2.176 11.12-6.53 14.888-4.354 3.77-10.24 5.65-17.66 5.65h-10.83v.002zm0-11.172h10.828c3.15 0 5.55-.866 7.197-2.6 1.647-1.732 2.47-3.96 2.47-6.682 0-2.778-.823-5.056-2.47-6.832-1.647-1.775-4.046-2.664-7.197-2.664h-10.828V69.64zM275.284 96.753c-1.49 2.062-3.316 3.646-5.48 4.748-2.162 1.104-4.604 1.655-7.325 1.655-4.813 0-8.588-1.547-11.323-4.64-2.736-3.095-4.104-7.893-4.104-14.396V55.76h14.48v28.446c0 2.607.494 4.555 1.482 5.844.988 1.29 2.4 1.934 4.232 1.934 1.547 0 2.907-.215 4.082-.645a7.892 7.892 0 0 0 3.007-1.935V55.76h14.523v46.493h-12.676l-.9-5.5zM338.15 79.995c0 7.076-1.52 12.705-4.556 16.887-3.037 4.183-7.534 6.273-13.492 6.273-2.55 0-4.77-.552-6.66-1.654-1.89-1.1-3.495-2.685-4.812-4.747l-.945 5.5h-12.59v-67.03h14.523v25.05c1.29-1.72 2.786-3.043 4.49-3.975 1.704-.93 3.674-1.396 5.908-1.396 5.987 0 10.506 2.19 13.557 6.574 3.05 4.383 4.576 10.256 4.576 17.617v.902zm-14.482-.902c0-4.125-.516-7.326-1.547-9.604-1.03-2.28-2.95-3.417-5.757-3.417-1.576 0-2.93.294-4.06.88a6.59 6.59 0 0 0-2.687 2.558v19.51a6.238 6.238 0 0 0 2.707 2.233c1.117.487 2.492.73 4.125.73 2.864 0 4.784-.995 5.758-2.986.974-1.99 1.46-4.99 1.46-9.002v-.902h.002zM358.002 102.253h-14.566v-67.03h14.566v67.03zM380.347 44.976H365.78v-9.754h14.567v9.754zm0 57.277H365.78V55.76h14.567v46.493zM411.717 89.19c0-1.146-.652-2.17-1.955-3.072-1.304-.902-3.674-1.71-7.11-2.428-5.415-1.06-9.497-2.707-12.247-4.94-2.75-2.235-4.125-5.286-4.125-9.153 0-4.096 1.72-7.57 5.156-10.42 3.438-2.85 8.092-4.275 13.965-4.275 6.19 0 11.115 1.383 14.782 4.146 3.666 2.765 5.414 6.338 5.242 10.72l-.086.26h-14.094c0-1.834-.466-3.224-1.396-4.17-.932-.944-2.428-1.417-4.49-1.417-1.52 0-2.793.417-3.824 1.247-1.03.83-1.547 1.89-1.547 3.18 0 1.232.594 2.277 1.783 3.137 1.188.86 3.588 1.633 7.197 2.32 5.672 1.117 9.875 2.786 12.61 5.006 2.736 2.22 4.105 5.364 4.105 9.432 0 4.183-1.855 7.627-5.564 10.334-3.71 2.707-8.615 4.06-14.717 4.06-6.33 0-11.336-1.603-15.017-4.81-3.682-3.21-5.436-6.79-5.264-10.743l.085-.258h13.148c.057 2.206.723 3.796 1.998 4.77 1.275.975 3.087 1.46 5.437 1.46 1.947 0 3.423-.378 4.426-1.138 1.002-.76 1.504-1.842 1.504-3.247zM444.848 61.52c1.403-2.092 3.115-3.718 5.135-4.878 2.02-1.16 4.246-1.74 6.682-1.74 4.812 0 8.594 1.676 11.344 5.027 2.75 3.35 4.124 8.55 4.124 15.597v26.727H457.61V75.44c0-3.552-.537-6-1.61-7.348-1.075-1.346-2.716-2.02-4.92-2.02-1.405 0-2.622.208-3.653.623-1.03.416-1.89.996-2.578 1.74v33.816h-14.524V35.223h14.523V61.52h-.002zM499.677 103.155c-6.847 0-12.31-2.148-16.393-6.445-4.082-4.297-6.123-9.682-6.123-16.156V78.92c0-7.074 1.855-12.853 5.565-17.337 3.71-4.482 9.016-6.71 15.92-6.682 6.302 0 11.243 1.892 14.824 5.673 3.58 3.78 5.37 8.91 5.37 15.383v7.605h-26.555l-.086.26c.313 2.377 1.288 4.332 2.92 5.864 1.634 1.533 3.81 2.3 6.532 2.3 2.75 0 4.948-.216 6.596-.646 1.646-.43 3.73-1.174 6.252-2.234l3.438 8.852c-2.034 1.49-4.662 2.73-7.885 3.717-3.223.988-6.68 1.482-10.376 1.482zm-1.03-37.082c-2.093 0-3.66.745-4.706 2.234-1.045 1.49-1.683 3.48-1.91 5.973l.128.215h12.504v-1.117c0-2.35-.487-4.153-1.46-5.414-.976-1.26-2.494-1.89-4.556-1.89zM549.48 68.565l-5.285-.043c-1.662 0-3.022.28-4.082.838-1.06.56-1.848 1.354-2.363 2.385v30.508h-14.523V55.76h13.664l.517 6.833c.974-2.435 2.263-4.325 3.867-5.672 1.604-1.345 3.48-2.02 5.63-2.02.687 0 1.388.052 2.104.15.716.102 1.346.224 1.89.366l-1.418 13.15z"/></g></g></svg>