<?xml version="1.0" encoding="utf-8"?>
<!-- Generator: Adobe Illustrator 16.0.4, SVG Export Plug-In . SVG Version: 6.00 Build 0)  -->
<!DOCTYPE svg PUBLIC "-//W3C//DTD SVG 1.1//EN" "http://www.w3.org/Graphics/SVG/1.1/DTD/svg11.dtd">
<svg version="1.1" xmlns="http://www.w3.org/2000/svg" xmlns:xlink="http://www.w3.org/1999/xlink" x="0px" y="0px" width="99.32px"
	 height="160.81px" viewBox="0 0 99.32 160.81" enable-background="new 0 0 99.32 160.81" xml:space="preserve">
<g id="text">
</g>
<g id="podlove_logo">
	<g id="podlove_signet_1_">
		<g>
			<path fill="#181716" d="M78.119,9c6.728,0,12.201,5.474,12.201,12.202v118.408c0,6.728-5.474,12.201-12.201,12.201H21.2
				c-6.727,0-12.2-5.473-12.2-12.201V21.202C9,14.474,14.473,9,21.2,9H78.119 M78.119,0H21.2C9.493,0,0,9.493,0,21.202v118.408
				c0,11.708,9.493,21.201,21.2,21.201h56.919c11.71,0,21.201-9.492,21.201-21.201V21.202C99.32,9.493,89.829,0,78.119,0L78.119,0z"
				/>
		</g>
		<g>
			<path fill="#181716" d="M49.576,90.412c12.742,0,23.069,10.327,23.069,23.068c0,12.74-10.327,23.069-23.069,23.069
				c-12.738,0-23.067-10.329-23.067-23.069C26.509,100.739,36.838,90.412,49.576,90.412 M49.576,81.412
				c-17.682,0-32.067,14.386-32.067,32.068c0,17.683,14.385,32.069,32.067,32.069c17.683,0,32.069-14.386,32.069-32.069
				C81.646,95.798,67.259,81.412,49.576,81.412L49.576,81.412z"/>
		</g>
		<path fill-rule="evenodd" clip-rule="evenodd" fill="none" stroke="#181716" stroke-width="9" stroke-miterlimit="10" d="
			M72.895,46.223L49.325,69.806L25.758,46.22c-2.649-2.7-4.285-6.399-4.285-10.481c0-8.267,6.702-14.968,14.968-14.968
			c5.485,0,10.278,2.949,12.885,7.347c2.606-4.398,7.401-7.347,12.884-7.347c8.268,0,14.97,6.701,14.97,14.968
			C77.18,39.821,75.544,43.522,72.895,46.223z"/>
		<path fill-rule="evenodd" clip-rule="evenodd" fill="#181716" d="M49.577,105.223c4.561,0,8.26,3.698,8.26,8.257
			c0,4.562-3.699,8.258-8.26,8.258c-4.56,0-8.257-3.696-8.257-8.258C41.32,108.921,45.017,105.223,49.577,105.223z"/>
	</g>
</g>
<g id="hilfslinien">
</g>
</svg>
