<?xml version="1.0" encoding="utf-8"?>
<!-- Generator: Adobe Illustrator 16.0.4, SVG Export Plug-In . SVG Version: 6.00 Build 0)  -->
<!DOCTYPE svg PUBLIC "-//W3C//DTD SVG 1.1//EN" "http://www.w3.org/Graphics/SVG/1.1/DTD/svg11.dtd">
<svg version="1.1" xmlns="http://www.w3.org/2000/svg" xmlns:xlink="http://www.w3.org/1999/xlink" x="0px" y="0px"
	 width="445.547px" height="121.03px" viewBox="0 0 445.547 121.03" enable-background="new 0 0 445.547 121.03"
	 xml:space="preserve">
<g id="text">
</g>
<g id="podlove_logo">
	<g>
		<path d="M19.357,25.596H4.239v3.6c0,1.92,0,1.8,0,3.52H0V10.318c0-1.92,0-1.76,0-3.52h19.357c4.319,0,5.919,2.399,5.919,5.839
			v7.119C25.276,23.196,23.676,25.596,19.357,25.596z M21.037,11.918c0-1.04-0.4-1.439-1.32-1.439H5.559
			c-0.92,0-1.32,0.399-1.32,1.439v8.559c0,1.04,0.4,1.439,1.32,1.439h14.158c0.92,0,1.32-0.399,1.32-1.439V11.918z"/>
		<path d="M47.997,25.596H33.279c-4.239,0-5.439-1.76-5.439-5.679v-7.439c0-3.919,1.2-5.679,5.439-5.679h14.718
			c4.239,0,5.439,1.76,5.439,5.679v7.439C53.436,23.836,52.236,25.596,47.997,25.596z M49.196,11.998c0-1.08-0.32-1.52-1.44-1.52
			H33.439c-1.04,0-1.36,0.439-1.36,1.52v8.398c0,1.08,0.32,1.52,1.36,1.52h14.317c1.12,0,1.44-0.439,1.44-1.52V11.998z"/>
		<path d="M61.918,25.596c-4.479,0-5.919-2.239-5.919-5.839v-7.119c0-3.759,1.48-5.839,5.919-5.839h15.118c0,0,0-5.639,0-6.799
			h4.239v22.076c0,1.92,0,2.2,0,3.52H61.918z M77.036,11.918c0-1.04-0.4-1.439-1.32-1.439H61.559c-0.92,0-1.32,0.399-1.32,1.439
			v8.559c0,1.04,0.4,1.439,1.32,1.439h14.158c0.92,0,1.32-0.399,1.32-1.439V11.918z"/>
		<path d="M84.439,25.596V0h4.239v25.596H84.439z"/>
		<path d="M111.916,25.596H97.198c-4.239,0-5.439-1.76-5.439-5.679v-7.439c0-3.919,1.2-5.679,5.439-5.679h14.718
			c4.239,0,5.438,1.76,5.438,5.679v7.439C117.354,23.836,116.155,25.596,111.916,25.596z M113.115,11.998
			c0-1.08-0.319-1.52-1.439-1.52H97.358c-1.04,0-1.359,0.439-1.359,1.52v8.398c0,1.08,0.319,1.52,1.359,1.52h14.317
			c1.12,0,1.439-0.439,1.439-1.52V11.998z"/>
		<path d="M133.915,25.596h-0.12h-4.719h-0.12L117.437,6.799h4.84l9.158,14.958l9.158-14.958h4.84L133.915,25.596z"/>
		<path d="M149.755,18.237v1.76c0,1.359,0.64,1.919,2.159,1.919h15.197v3.68h-16.157c-4.239,0-5.438-1.72-5.438-5.679v-7.439
			c0-3.919,0.959-5.679,5.438-5.679h14.357c4.479,0,5.439,1.56,5.439,5.679v5.76H149.755z M166.752,11.998
			c0-1.08-0.32-1.52-1.36-1.52h-14.277c-1.04,0-1.359,0.439-1.359,1.52v2.56h16.997V11.998z"/>
	</g>
	<g>
		<path fill="#F2875C" d="M85.01,80.726h0.258l8.207-41.035h14.051l-14.352,62.562H79.51L68.983,63.667h-0.258l-10.441,38.586H44.62
			L30.225,39.69h14.094l8.207,41.035h0.258L63.827,39.69h10.098L85.01,80.726z"/>
		<path fill="#F2875C" d="M126.708,103.155c-6.847,0-12.311-2.148-16.393-6.445s-6.123-9.682-6.123-16.156v-1.633
			c0-7.075,1.854-12.854,5.564-17.338c3.709-4.482,9.016-6.71,15.92-6.682c6.302,0,11.243,1.891,14.824,5.672
			c3.58,3.781,5.371,8.909,5.371,15.383v7.605h-26.555l-0.086,0.258c0.314,2.378,1.289,4.333,2.922,5.865
			c1.633,1.533,3.81,2.299,6.531,2.299c2.75,0,4.948-0.215,6.596-0.645c1.646-0.43,3.73-1.174,6.252-2.234l3.438,8.852
			c-2.034,1.49-4.662,2.729-7.885,3.717S130.403,103.155,126.708,103.155z M125.676,66.073c-2.092,0-3.66,0.745-4.705,2.234
			c-1.046,1.49-1.684,3.48-1.912,5.973l0.129,0.215h12.504v-1.117c0-2.349-0.487-4.153-1.461-5.414
			C129.256,66.704,127.739,66.073,125.676,66.073z"/>
		<path fill="#F2875C" d="M193.31,79.995c0,7.076-1.519,12.705-4.555,16.887c-3.037,4.183-7.534,6.273-13.492,6.273
			c-2.55,0-4.77-0.552-6.66-1.654s-3.495-2.686-4.812-4.748l-0.945,5.5h-12.59V35.222h14.523v25.051
			c1.289-1.719,2.785-3.043,4.49-3.975c1.704-0.931,3.674-1.396,5.908-1.396c5.986,0,10.506,2.191,13.557,6.574
			s4.576,10.256,4.576,17.617V79.995z M178.83,79.093c0-4.125-0.516-7.326-1.547-9.604s-2.951-3.416-5.758-3.416
			c-1.576,0-2.93,0.294-4.061,0.881c-1.132,0.588-2.027,1.439-2.686,2.557v19.508c0.688,1.003,1.59,1.748,2.707,2.234
			c1.117,0.487,2.492,0.73,4.125,0.73c2.864,0,4.783-0.995,5.758-2.986c0.974-1.99,1.461-4.991,1.461-9.002V79.093z"/>
		<path fill="#F2875C" d="M226.407,80.812v21.441H211.84V39.69h25.395c7.419,0,13.306,1.898,17.66,5.693
			c4.354,3.796,6.531,8.759,6.531,14.889c0,6.159-2.178,11.122-6.531,14.889c-4.354,3.768-10.241,5.65-17.66,5.65H226.407z
			 M226.407,69.64h10.828c3.15,0,5.55-0.866,7.197-2.6c1.646-1.732,2.471-3.96,2.471-6.682c0-2.778-0.824-5.056-2.471-6.832
			c-1.647-1.775-4.047-2.664-7.197-2.664h-10.828V69.64z"/>
		<path fill="#F2875C" d="M280.507,102.253h-14.566V35.222h14.566V102.253z"/>
		<path fill="#F2875C" d="M314.369,102.21c-0.401-0.744-0.767-1.575-1.096-2.492c-0.33-0.916-0.609-1.861-0.838-2.836
			c-1.375,1.92-3.037,3.445-4.984,4.576c-1.948,1.131-4.312,1.697-7.09,1.697c-4.412,0-8-1.274-10.764-3.824
			c-2.765-2.549-4.146-5.943-4.146-10.184c0-4.611,1.726-8.171,5.178-10.678c3.451-2.506,8.701-3.76,15.748-3.76h5.285v-3.309
			c0-1.977-0.466-3.494-1.396-4.555c-0.932-1.06-2.371-1.59-4.318-1.59c-1.662,0-2.9,0.395-3.717,1.182
			c-0.816,0.788-1.225,2.013-1.225,3.674l-14.051-0.043l-0.086-0.258c-0.201-4.239,1.561-7.784,5.285-10.635
			c3.724-2.85,8.65-4.275,14.781-4.275c5.729,0,10.377,1.433,13.943,4.297c3.566,2.865,5.35,6.961,5.35,12.289v17.531
			c0,2.492,0.207,4.799,0.623,6.918c0.415,2.12,1.038,4.226,1.869,6.316L314.369,102.21z M304.787,92.8
			c1.432,0,2.75-0.286,3.953-0.859c1.203-0.572,2.177-1.317,2.922-2.234v-7.262h-5.156c-2.292,0-3.961,0.559-5.006,1.676
			c-1.046,1.117-1.568,2.535-1.568,4.254c0,1.318,0.451,2.385,1.354,3.201S303.354,92.8,304.787,92.8z"/>
		<path fill="#F2875C" d="M349.906,81.757l0.043,0.344h0.258l7.691-26.34h15.469l-18.52,53.41c-1.433,3.438-3.28,6.273-5.543,8.508
			c-2.264,2.234-5.858,3.352-10.785,3.352c-1.261,0-2.292-0.078-3.094-0.235c-0.803-0.157-2.062-0.449-3.781-0.878l1.762-10.316
			c0.4,0.086,0.701,0.15,0.902,0.193c0.2,0.043,0.458,0.064,0.773,0.064c2.291,0,3.967-0.339,5.027-1.016
			c1.06-0.678,1.848-1.693,2.363-3.048l1.16-3.026l-16.07-47.008h15.426L349.906,81.757z"/>
		<path fill="#F2875C" d="M394.327,103.155c-6.847,0-12.311-2.148-16.393-6.445s-6.123-9.682-6.123-16.156v-1.633
			c0-7.075,1.854-12.854,5.564-17.338c3.709-4.482,9.016-6.71,15.92-6.682c6.302,0,11.243,1.891,14.824,5.672
			c3.58,3.781,5.371,8.909,5.371,15.383v7.605h-26.555l-0.086,0.258c0.314,2.378,1.289,4.333,2.922,5.865
			c1.633,1.533,3.81,2.299,6.531,2.299c2.75,0,4.948-0.215,6.596-0.645c1.646-0.43,3.73-1.174,6.252-2.234l3.438,8.852
			c-2.034,1.49-4.662,2.729-7.885,3.717S398.022,103.155,394.327,103.155z M393.295,66.073c-2.092,0-3.66,0.745-4.705,2.234
			c-1.046,1.49-1.684,3.48-1.912,5.973l0.129,0.215h12.504v-1.117c0-2.349-0.487-4.153-1.461-5.414
			C396.875,66.704,395.358,66.073,393.295,66.073z"/>
		<path fill="#F2875C" d="M444.129,68.565l-5.285-0.043c-1.662,0-3.022,0.279-4.082,0.838c-1.061,0.559-1.848,1.354-2.363,2.385
			v30.508h-14.523V55.761h13.664l0.516,6.832c0.974-2.435,2.263-4.325,3.867-5.672c1.604-1.346,3.48-2.02,5.629-2.02
			c0.688,0,1.389,0.051,2.105,0.15c0.716,0.101,1.346,0.223,1.891,0.365L444.129,68.565z"/>
	</g>
</g>
<g id="hilfslinien">
</g>
</svg>
