<svg width="695" height="120" viewBox="0 0 695 120" xmlns="http://www.w3.org/2000/svg"><title>Slice 1</title><g fill="none" fill-rule="evenodd"><g fill="#000"><path d="M144.357 25.596H129.24v7.12H125V6.798h19.357c4.32 0 5.92 2.4 5.92 5.84v7.118c0 3.44-1.6 5.84-5.92 5.84zm1.68-13.678c0-1.04-.4-1.44-1.32-1.44H130.56c-.92 0-1.32.4-1.32 1.44v8.56c0 1.04.4 1.438 1.32 1.438h14.157c.92 0 1.32-.4 1.32-1.44V11.92zM172.997 25.596H158.28c-4.24 0-5.44-1.76-5.44-5.68V12.48c0-3.92 1.2-5.68 5.44-5.68h14.717c4.24 0 5.44 1.76 5.44 5.68v7.44c0 3.918-1.2 5.678-5.44 5.678zm1.2-13.598c0-1.08-.32-1.52-1.44-1.52h-14.318c-1.04 0-1.36.44-1.36 1.52v8.398c0 1.08.32 1.52 1.36 1.52h14.316c1.12 0 1.44-.44 1.44-1.52v-8.398zM186.918 25.596c-4.48 0-5.92-2.24-5.92-5.84V12.64c0-3.76 1.48-5.84 5.92-5.84h15.118V0h4.24v25.596h-19.358zm15.118-13.678c0-1.04-.4-1.44-1.32-1.44H186.56c-.92 0-1.32.4-1.32 1.44v8.56c0 1.04.4 1.438 1.32 1.438h14.157c.92 0 1.32-.4 1.32-1.44V11.92zM209.44 25.596V0h4.238v25.596h-4.24zM236.916 25.596h-14.718c-4.24 0-5.44-1.76-5.44-5.68V12.48c0-3.92 1.2-5.68 5.44-5.68h14.718c4.24 0 5.438 1.76 5.438 5.68v7.44c0 3.918-1.2 5.678-5.438 5.678zm1.2-13.598c0-1.08-.32-1.52-1.44-1.52h-14.318c-1.04 0-1.36.44-1.36 1.52v8.398c0 1.08.32 1.52 1.36 1.52h14.317c1.12 0 1.44-.44 1.44-1.52v-8.398zM258.915 25.596h-4.96L242.438 6.8h4.84l9.158 14.957L265.593 6.8h4.84l-11.518 18.796zM274.755 18.237v1.76c0 1.36.64 1.92 2.16 1.92h15.196v3.68h-16.156c-4.24 0-5.438-1.72-5.438-5.68v-7.44c0-3.918.96-5.678 5.438-5.678h14.357c4.48 0 5.44 1.56 5.44 5.678v5.76h-20.995zm16.997-6.24c0-1.08-.32-1.52-1.36-1.52h-14.277c-1.04 0-1.36.44-1.36 1.52v2.56h16.998v-2.56z"/></g><g fill="#F2875C"><path d="M210.01 80.726h.258l8.207-41.035h14.05l-14.35 62.563H204.51l-10.527-38.586h-.258l-10.44 38.586H169.62L155.225 39.69h14.094l8.206 41.035h.258l11.043-41.035h10.098l11.085 41.036zM251.708 103.155c-6.847 0-12.31-2.148-16.393-6.445-4.082-4.297-6.123-9.682-6.123-16.156V78.92c0-7.074 1.854-12.853 5.564-17.337 3.71-4.482 9.016-6.71 15.92-6.682 6.302 0 11.243 1.892 14.824 5.673 3.58 3.78 5.37 8.91 5.37 15.383v7.605h-26.554l-.086.26c.314 2.377 1.29 4.332 2.922 5.864 1.633 1.533 3.81 2.3 6.53 2.3 2.75 0 4.95-.216 6.597-.646 1.645-.43 3.73-1.174 6.25-2.234l3.44 8.852c-2.035 1.49-4.663 2.73-7.886 3.717-3.223.988-6.68 1.482-10.376 1.482zm-1.032-37.082c-2.092 0-3.66.745-4.705 2.234-1.045 1.49-1.683 3.48-1.91 5.973l.128.215h12.504v-1.117c0-2.35-.487-4.153-1.46-5.414-.976-1.26-2.493-1.89-4.556-1.89zM318.31 79.995c0 7.076-1.52 12.705-4.555 16.887-3.037 4.183-7.534 6.273-13.492 6.273-2.55 0-4.77-.552-6.66-1.654-1.89-1.1-3.495-2.685-4.812-4.747l-.944 5.5h-12.59v-67.03h14.523v25.05c1.288-1.72 2.784-3.043 4.49-3.975 1.703-.93 3.673-1.396 5.907-1.396 5.986 0 10.506 2.19 13.557 6.574 3.05 4.383 4.576 10.256 4.576 17.617v.902zm-14.48-.902c0-4.125-.516-7.326-1.547-9.604-1.03-2.28-2.95-3.417-5.758-3.417-1.576 0-2.93.294-4.06.88a6.59 6.59 0 0 0-2.687 2.558v19.51a6.238 6.238 0 0 0 2.707 2.233c1.117.487 2.492.73 4.125.73 2.864 0 4.783-.995 5.758-2.986.974-1.99 1.46-4.99 1.46-9.002v-.902h.002zM351.407 80.812v21.44H336.84V39.69h25.395c7.42 0 13.306 1.898 17.66 5.693 4.354 3.796 6.53 8.76 6.53 14.89 0 6.158-2.177 11.12-6.53 14.888-4.354 3.77-10.24 5.65-17.66 5.65h-10.828v.002zm0-11.172h10.828c3.15 0 5.55-.866 7.197-2.6 1.646-1.732 2.47-3.96 2.47-6.682 0-2.778-.823-5.056-2.47-6.832-1.647-1.775-4.047-2.664-7.197-2.664h-10.828V69.64zM405.507 102.253H390.94v-67.03h14.567v67.03zM439.37 102.21c-.402-.744-.768-1.575-1.097-2.492-.33-.916-.61-1.86-.838-2.836-1.375 1.92-3.037 3.445-4.984 4.576-1.947 1.13-4.31 1.697-7.09 1.697-4.41 0-8-1.274-10.763-3.824-2.765-2.548-4.146-5.942-4.146-10.183 0-4.61 1.727-8.17 5.18-10.678 3.45-2.507 8.7-3.76 15.747-3.76h5.285V71.4c0-1.977-.466-3.494-1.396-4.555-.932-1.06-2.37-1.59-4.318-1.59-1.662 0-2.9.395-3.717 1.182-.815.788-1.224 2.013-1.224 3.674l-14.05-.042-.087-.258c-.202-4.24 1.56-7.784 5.284-10.635 3.724-2.85 8.65-4.275 14.78-4.275 5.73 0 10.378 1.433 13.944 4.297 3.566 2.865 5.35 6.96 5.35 12.29v17.53c0 2.492.207 4.8.623 6.918a35.57 35.57 0 0 0 1.87 6.316l-14.35-.04zm-9.583-9.41c1.432 0 2.75-.286 3.953-.86 1.203-.57 2.177-1.316 2.922-2.233v-7.262h-5.156c-2.292 0-3.96.56-5.006 1.676-1.046 1.118-1.568 2.536-1.568 4.255 0 1.318.45 2.385 1.354 3.2.903.817 2.068 1.225 3.5 1.225zM474.906 81.757l.043.344h.257l7.69-26.34h15.47l-18.52 53.41c-1.433 3.44-3.28 6.274-5.543 8.51-2.264 2.233-5.858 3.35-10.785 3.35-1.262 0-2.293-.077-3.095-.234-.803-.157-2.062-.45-3.78-.878l1.76-10.316.903.193c.2.043.458.064.773.064 2.292 0 3.968-.34 5.028-1.017 1.06-.678 1.848-1.693 2.363-3.048l1.16-3.026-16.07-47.01h15.427l6.92 25.997zM519.327 103.155c-6.847 0-12.31-2.148-16.393-6.445-4.082-4.297-6.123-9.682-6.123-16.156V78.92c0-7.074 1.855-12.853 5.565-17.337 3.71-4.482 9.016-6.71 15.92-6.682 6.302 0 11.243 1.892 14.824 5.673 3.58 3.78 5.37 8.91 5.37 15.383v7.605h-26.555l-.086.26c.313 2.377 1.288 4.332 2.92 5.864 1.634 1.533 3.81 2.3 6.532 2.3 2.75 0 4.948-.216 6.596-.646 1.646-.43 3.73-1.174 6.252-2.234l3.438 8.852c-2.034 1.49-4.662 2.73-7.885 3.717-3.223.988-6.68 1.482-10.376 1.482zm-1.032-37.082c-2.092 0-3.66.745-4.705 2.234-1.046 1.49-1.684 3.48-1.912 5.973l.13.215h12.503v-1.117c0-2.35-.486-4.153-1.46-5.414-.975-1.26-2.492-1.89-4.555-1.89zM569.13 68.565l-5.286-.043c-1.662 0-3.022.28-4.082.838-1.06.56-1.848 1.354-2.363 2.385v30.508h-14.524V55.76h13.664l.516 6.833c.974-2.435 2.263-4.325 3.867-5.672 1.604-1.345 3.48-2.02 5.63-2.02.687 0 1.388.052 2.104.15.716.102 1.346.224 1.89.366l-1.418 13.15z"/></g></g></svg>