<?xml version="1.0" encoding="utf-8"?>
<!-- Generator: Adobe Illustrator 16.0.4, SVG Export Plug-In . SVG Version: 6.00 Build 0)  -->
<!DOCTYPE svg PUBLIC "-//W3C//DTD SVG 1.1//EN" "http://www.w3.org/Graphics/SVG/1.1/DTD/svg11.dtd">
<svg version="1.1" xmlns="http://www.w3.org/2000/svg" xmlns:xlink="http://www.w3.org/1999/xlink" x="0px" y="0px"
	 width="160.472px" height="160.81px" viewBox="0 0 160.472 160.81" enable-background="new 0 0 160.472 160.81"
	 xml:space="preserve">
<g id="text">
</g>
<g id="podlove_logo">
	<g id="sub_signet">
		<g>
			<g>
				<path fill-rule="evenodd" clip-rule="evenodd" fill="#61B66D" d="M139.271,0h-56.92c-2.909,0-5.68,0.588-8.204,1.649h2.37
					c11.47,0,20.767,9.298,20.767,20.767v115.979c0,11.468-9.297,20.767-20.767,20.767h-2.371c2.524,1.061,5.295,1.648,8.205,1.648
					h56.92c11.71,0,21.201-9.492,21.201-21.201V21.202C160.472,9.493,150.98,0,139.271,0z"/>
			</g>
		</g>
		<path fill-rule="evenodd" clip-rule="evenodd" fill="#FFFFFF" stroke="#FFFFFF" stroke-width="2" stroke-miterlimit="10" d="
			M148.022,91.342c0,4.084-3.311,7.395-7.395,7.395h-22.183c-4.084,0-7.394-3.31-7.394-7.395v-7.474h-0.003V69.467
			c0-4.084,3.311-7.394,7.395-7.394h22.183c4.084,0,7.394,3.31,7.394,7.394v13.174h0.003V91.342z M145.556,69.467
			c0-2.722-2.208-4.929-4.93-4.929h-22.183c-2.723,0-4.93,2.207-4.93,4.929v13.174h0.002v8.701c0,2.723,2.208,4.93,4.93,4.93h22.183
			c2.723,0,4.93-2.207,4.93-4.93v-7.474h-0.002V69.467z M128.06,86.563c-0.453,0.452-1.189,0.452-1.642,0c0,0,0-0.005-0.003-0.005
			l-5.442-5.443c-0.453-0.453-0.453-1.185,0-1.64c0.451-0.453,1.186-0.453,1.641,0l4.628,4.627l9.825-9.828
			c0.451-0.453,1.184-0.453,1.636,0c0.453,0.453,0.453,1.189,0,1.642L128.06,86.563z"/>
	</g>
	<g id="podlove_signet">
		<g>
			<path fill="#181716" d="M78.182,9c6.728,0,12.201,5.474,12.201,12.202v118.408c0,6.728-5.474,12.201-12.201,12.201H21.262
				c-6.727,0-12.2-5.473-12.2-12.201V21.202C9.062,14.474,14.535,9,21.262,9H78.182 M78.182,0H21.262
				c-11.707,0-21.2,9.493-21.2,21.202v118.408c0,11.708,9.493,21.201,21.2,21.201h56.919c11.71,0,21.201-9.492,21.201-21.201V21.202
				C99.383,9.493,89.892,0,78.182,0L78.182,0z"/>
		</g>
		<g>
			<path fill="#181716" d="M49.639,90.412c12.742,0,23.069,10.327,23.069,23.068c0,12.74-10.327,23.069-23.069,23.069
				c-12.738,0-23.067-10.329-23.067-23.069C26.571,100.739,36.9,90.412,49.639,90.412 M49.639,81.412
				c-17.682,0-32.067,14.386-32.067,32.068c0,17.683,14.385,32.069,32.067,32.069c17.683,0,32.069-14.386,32.069-32.069
				C81.708,95.798,67.322,81.412,49.639,81.412L49.639,81.412z"/>
		</g>
		<path fill-rule="evenodd" clip-rule="evenodd" fill="none" stroke="#181716" stroke-width="9" stroke-miterlimit="10" d="
			M72.957,46.223L49.388,69.806L25.82,46.22c-2.649-2.7-4.285-6.399-4.285-10.481c0-8.267,6.702-14.968,14.968-14.968
			c5.485,0,10.278,2.949,12.885,7.347c2.606-4.398,7.401-7.347,12.884-7.347c8.268,0,14.97,6.701,14.97,14.968
			C77.242,39.821,75.606,43.522,72.957,46.223z"/>
		<path fill-rule="evenodd" clip-rule="evenodd" fill="#181716" d="M49.64,105.223c4.561,0,8.26,3.698,8.26,8.257
			c0,4.562-3.699,8.258-8.26,8.258c-4.56,0-8.257-3.696-8.257-8.258C41.383,108.921,45.08,105.223,49.64,105.223z"/>
	</g>
</g>
<g id="hilfslinien">
</g>
</svg>
